<svg width="57" height="57" viewBox="0 0 57 57" fill="none" xmlns="http://www.w3.org/2000/svg">
<rect x="0.852235" y="0.978486" width="55.5457" height="55.5457" rx="10.4717" fill="#F3F4F6"/>
<g clip-path="url(#clip0_1_258)">
<path d="M24.9824 38.2269C25.8959 38.3375 27.0551 38.3375 28.6248 38.3375C30.1944 38.3375 31.3536 38.3375 32.2671 38.2269M24.9824 38.2269C24.149 38.1259 23.5201 37.9328 22.9706 37.5636C22.8782 37.5015 22.7881 37.4361 22.7005 37.3674C21.6086 36.5112 21.1448 35.0838 20.2173 32.2291C19.2897 29.3744 18.8259 27.9471 19.2061 26.6125C19.2366 26.5055 19.271 26.3996 19.3092 26.2951C19.7861 24.992 21.0003 24.1098 23.4286 22.3455C25.857 20.5812 27.0712 19.6991 28.4578 19.6482C28.5691 19.6441 28.6804 19.6441 28.7917 19.6482C30.1783 19.6991 31.3925 20.5812 33.8209 22.3455C36.2492 24.1098 37.4634 24.992 37.9403 26.2951C37.9785 26.3996 38.0129 26.5055 38.0434 26.6125C38.4236 27.9471 37.9598 29.3744 37.0322 32.2291C36.1047 35.0838 35.6409 36.5112 34.549 37.3674C34.4614 37.4361 34.3713 37.5015 34.2789 37.5636C33.7294 37.9328 33.1005 38.1259 32.2671 38.2269M24.9824 38.2269V38.1479V34.9609C24.9824 32.9493 26.6131 31.3185 28.6248 31.3185C30.6364 31.3185 32.2671 32.9493 32.2671 34.9609V38.1479V38.2269" stroke="url(#paint0_linear_1_258)" stroke-width="1.36588"/>
</g>
<rect x="0.852235" y="0.978486" width="55.5457" height="55.5457" rx="10.4717" stroke="url(#paint1_linear_1_258)" stroke-width="0.910585"/>
<defs>
<linearGradient id="paint0_linear_1_258" x1="27.0607" y1="-27.9203" x2="63.9781" y2="5.28617" gradientUnits="userSpaceOnUse">
<stop stop-color="#F54374"/>
<stop offset="0.680208" stop-color="#F54374"/>
<stop offset="1" stop-color="#784BB7"/>
</linearGradient>
<linearGradient id="paint1_linear_1_258" x1="24.0029" y1="-143.138" x2="135.222" y2="-45.2521" gradientUnits="userSpaceOnUse">
<stop stop-color="#F54374"/>
<stop offset="0.680208" stop-color="#F54374"/>
<stop offset="1" stop-color="#784BB7"/>
</linearGradient>
<clipPath id="clip0_1_258">
<rect width="21.854" height="21.854" fill="white" transform="translate(17.6977 17.824)"/>
</clipPath>
</defs>
</svg>
