<svg width="130" height="38" viewBox="0 0 130 38" fill="none" xmlns="http://www.w3.org/2000/svg">
<path d="M128.634 33.2894C128.634 35.271 126.996 36.8762 124.969 36.8762H5.01603C2.99019 36.8762 1.34581 35.271 1.34581 33.2894V4.68557C1.34581 2.70485 2.99019 1.09406 5.01603 1.09406H124.968C126.996 1.09406 128.633 2.70485 128.633 4.68557L128.634 33.2894Z" fill="black"/>
<path d="M124.582 1.13834C126.789 1.13834 128.585 2.88953 128.585 5.04164V32.9307C128.585 35.0828 126.789 36.834 124.582 36.834H5.39821C3.19093 36.834 1.39483 35.0828 1.39483 32.9307V5.04164C1.39483 2.88953 3.19093 1.13834 5.39821 1.13834H124.582ZM124.582 0.393467H5.39821C2.77736 0.393467 0.630859 2.48631 0.630859 5.04164V32.9307C0.630859 35.486 2.77736 37.5788 5.39821 37.5788H124.582C127.203 37.5788 129.349 35.486 129.349 32.9307V5.04164C129.349 2.48631 127.203 0.393467 124.582 0.393467Z" fill="#A6A6A6"/>
<path d="M29.3574 18.7851C29.3297 15.7889 31.8736 14.3312 31.9899 14.2633C30.5492 12.2153 28.3162 11.9355 27.5315 11.9132C25.656 11.7208 23.8368 13.0074 22.8814 13.0074C21.907 13.0074 20.4358 11.9318 18.8501 11.9634C16.8097 11.9941 14.9009 13.1459 13.854 14.9345C11.6934 18.5815 13.3048 23.9408 15.3747 26.8887C16.4102 28.3324 17.6202 29.9444 19.2039 29.8877C20.7533 29.8254 21.332 28.9246 23.2018 28.9246C25.0544 28.9246 25.5979 29.8877 27.213 29.8514C28.8759 29.8254 29.9228 28.4012 30.922 26.9445C32.1186 25.2897 32.5992 23.6601 32.6183 23.5764C32.5792 23.5634 29.3889 22.3762 29.3574 18.7851Z" fill="white"/>
<path d="M26.3063 9.974C27.1396 8.95791 27.7098 7.57555 27.5515 6.17273C26.3454 6.22479 24.837 6.98616 23.9684 7.97994C23.1999 8.85565 22.5134 10.291 22.6907 11.6408C24.0456 11.7394 25.4367 10.9743 26.3063 9.974Z" fill="white"/>
<path d="M51.781 29.6803H49.6157L48.4296 26.0464H44.3068L43.1769 29.6803H41.0688L45.1535 17.3087H47.6763L51.781 29.6803ZM48.072 24.5218L46.9994 21.2913C46.8859 20.9613 46.6733 20.1841 46.3596 18.9607H46.3214C46.1965 19.4869 45.9954 20.2641 45.7189 21.2913L44.6653 24.5218H48.072Z" fill="white"/>
<path d="M62.2856 25.1105C62.2856 26.6277 61.8652 27.8269 61.0242 28.7073C60.271 29.491 59.3356 29.8824 58.2191 29.8824C57.0139 29.8824 56.1481 29.4603 55.6209 28.6162H55.5827V33.3155H53.5499V23.6966C53.5499 22.7428 53.5242 21.7639 53.4746 20.7599H55.2624L55.3758 22.1738H55.414C56.0919 21.1085 57.1207 20.5767 58.5013 20.5767C59.5806 20.5767 60.4817 20.9923 61.2025 21.8243C61.9252 22.6572 62.2856 23.7523 62.2856 25.1105ZM60.2147 25.1831C60.2147 24.3148 60.0145 23.599 59.6121 23.0356C59.1726 22.4481 58.5824 22.1543 57.8425 22.1543C57.3409 22.1543 56.8852 22.3179 56.478 22.6405C56.07 22.9659 55.803 23.3907 55.6781 23.9169C55.6152 24.1623 55.5837 24.3631 55.5837 24.5212V26.0086C55.5837 26.6575 55.7877 27.205 56.1958 27.6522C56.6039 28.0993 57.134 28.3224 57.7862 28.3224C58.5518 28.3224 59.1478 28.0342 59.574 27.4597C60.0011 26.8843 60.2147 26.1257 60.2147 25.1831Z" fill="white"/>
<path d="M72.8089 25.1105C72.8089 26.6277 72.3884 27.8269 71.5465 28.7073C70.7942 29.491 69.8588 29.8824 68.7423 29.8824C67.5371 29.8824 66.6714 29.4603 66.1451 28.6162H66.1069V33.3155H64.0741V23.6966C64.0741 22.7428 64.0484 21.7639 63.9988 20.7599H65.7866L65.9 22.1738H65.9382C66.6151 21.1085 67.6439 20.5767 69.0255 20.5767C70.1039 20.5767 71.0049 20.9923 71.7277 21.8243C72.4475 22.6572 72.8089 23.7523 72.8089 25.1105ZM70.738 25.1831C70.738 24.3148 70.5368 23.599 70.1344 23.0356C69.6948 22.4481 69.1066 22.1543 68.3657 22.1543C67.8632 22.1543 67.4084 22.3179 67.0003 22.6405C66.5923 22.9659 66.3262 23.3907 66.2013 23.9169C66.1394 24.1623 66.1069 24.3631 66.1069 24.5212V26.0086C66.1069 26.6575 66.311 27.205 66.7172 27.6522C67.1252 28.0984 67.6554 28.3224 68.3095 28.3224C69.0751 28.3224 69.671 28.0342 70.0972 27.4597C70.5244 26.8843 70.738 26.1257 70.738 25.1831Z" fill="white"/>
<path d="M84.5744 26.2108C84.5744 27.2631 84.1997 28.1193 83.4474 28.7803C82.6207 29.5026 81.4699 29.8633 79.9911 29.8633C78.6257 29.8633 77.5311 29.6068 76.7025 29.0927L77.1736 27.4407C78.066 27.9669 79.0452 28.2309 80.1122 28.2309C80.8778 28.2309 81.4737 28.0617 81.9018 27.7252C82.328 27.3886 82.5406 26.9368 82.5406 26.3735C82.5406 25.8715 82.3652 25.4485 82.0134 25.1055C81.6635 24.7624 81.079 24.4436 80.2628 24.1489C78.0412 23.341 76.9314 22.1576 76.9314 20.6014C76.9314 19.5844 77.3204 18.7505 78.0994 18.1016C78.8755 17.4518 79.911 17.1273 81.2058 17.1273C82.3604 17.1273 83.3196 17.3235 84.0853 17.7149L83.5771 19.3306C82.862 18.9513 82.0534 18.7616 81.1486 18.7616C80.4335 18.7616 79.8747 18.9336 79.4743 19.2757C79.1358 19.5816 78.9661 19.9544 78.9661 20.3959C78.9661 20.8849 79.1596 21.2893 79.5487 21.6073C79.8871 21.901 80.5021 22.219 81.3946 22.562C82.4863 22.9906 83.2882 23.4916 83.804 24.0661C84.3179 24.6388 84.5744 25.3555 84.5744 26.2108Z" fill="white"/>
<path d="M91.296 22.2461H89.0553V26.5773C89.0553 27.6789 89.4501 28.2292 90.2415 28.2292C90.6047 28.2292 90.906 28.1985 91.1444 28.1372L91.2007 29.6423C90.8002 29.7882 90.2729 29.8617 89.6198 29.8617C88.817 29.8617 88.1896 29.6227 87.7367 29.1458C87.2857 28.668 87.0588 27.8667 87.0588 26.7409V22.2442H85.7239V20.7568H87.0588V19.1234L89.0553 18.5359V20.7568H91.296V22.2461Z" fill="white"/>
<path d="M101.405 25.1459C101.405 26.5171 101.002 27.6429 100.2 28.5232C99.3576 29.4296 98.2401 29.8814 96.8471 29.8814C95.5046 29.8814 94.4358 29.4473 93.6387 28.579C92.8416 27.7107 92.443 26.6147 92.443 25.2937C92.443 23.9113 92.853 22.779 93.6759 21.8987C94.4968 21.0174 95.6047 20.5767 96.9978 20.5767C98.3403 20.5767 99.4205 21.0109 100.236 21.8801C101.016 22.7232 101.405 23.8118 101.405 25.1459ZM99.2956 25.21C99.2956 24.3873 99.1154 23.6817 98.7502 23.0932C98.324 22.3811 97.7148 22.026 96.9253 22.026C96.1082 22.026 95.4875 22.3821 95.0613 23.0932C94.6961 23.6826 94.5159 24.3994 94.5159 25.2472C94.5159 26.0699 94.6961 26.7755 95.0613 27.363C95.5008 28.0751 96.1149 28.4303 96.9072 28.4303C97.6833 28.4303 98.2926 28.0677 98.7321 27.3445C99.1068 26.7448 99.2956 26.0318 99.2956 25.21Z" fill="white"/>
<path d="M108.013 22.5029C107.811 22.4667 107.597 22.4481 107.372 22.4481C106.657 22.4481 106.104 22.7112 105.715 23.2383C105.376 23.7031 105.207 24.2906 105.207 24.9999V29.6806H103.175L103.194 23.5692C103.194 22.541 103.168 21.6049 103.118 20.7608H104.888L104.962 22.4676H105.019C105.233 21.881 105.572 21.4087 106.035 21.0546C106.488 20.7357 106.977 20.5767 107.504 20.5767C107.692 20.5767 107.862 20.5897 108.013 20.613V22.5029Z" fill="white"/>
<path d="M117.104 24.798C117.104 25.1531 117.081 25.4525 117.03 25.697H110.932C110.955 26.5783 111.25 27.2522 111.816 27.7171C112.33 28.1326 112.995 28.3408 113.811 28.3408C114.714 28.3408 115.538 28.2005 116.279 27.9188L116.597 29.2947C115.731 29.6628 114.709 29.8459 113.53 29.8459C112.111 29.8459 110.997 29.4387 110.187 28.6253C109.378 27.8119 108.973 26.7196 108.973 25.3493C108.973 24.0041 109.35 22.8839 110.104 21.9905C110.893 21.0367 111.96 20.5598 113.303 20.5598C114.622 20.5598 115.62 21.0367 116.298 21.9905C116.835 22.7482 117.104 23.6852 117.104 24.798ZM115.166 24.2839C115.179 23.6964 115.047 23.1888 114.771 22.7603C114.419 22.209 113.879 21.9338 113.151 21.9338C112.487 21.9338 111.946 22.2025 111.533 22.7417C111.195 23.1702 110.994 23.6843 110.932 24.283H115.166V24.2839Z" fill="white"/>
<path d="M47.3983 9.69806C47.3983 10.7922 47.0617 11.6159 46.3895 12.169C45.7669 12.6794 44.8821 12.935 43.736 12.935C43.1678 12.935 42.6815 12.9109 42.2743 12.8625V6.88406C42.8054 6.80039 43.3775 6.75763 43.9954 6.75763C45.0871 6.75763 45.9099 6.98911 46.4649 7.45207C47.0865 7.97545 47.3983 8.72381 47.3983 9.69806ZM46.3447 9.72502C46.3447 9.01571 46.1521 8.47187 45.7669 8.09258C45.3817 7.71422 44.8192 7.52458 44.0783 7.52458C43.7637 7.52458 43.4957 7.54503 43.2736 7.58779V12.1328C43.3966 12.1514 43.6216 12.1597 43.9486 12.1597C44.7133 12.1597 45.3035 11.9524 45.7192 11.5378C46.135 11.1232 46.3447 10.5189 46.3447 9.72502Z" fill="white"/>
<path d="M52.9848 10.654C52.9848 11.328 52.7875 11.8802 52.3927 12.3134C51.9789 12.7587 51.4307 12.9809 50.7461 12.9809C50.0863 12.9809 49.5609 12.768 49.169 12.3403C48.7781 11.9136 48.5826 11.3754 48.5826 10.7265C48.5826 10.0479 48.7838 9.49101 49.1881 9.05874C49.5924 8.62646 50.1359 8.40985 50.8204 8.40985C51.4802 8.40985 52.0104 8.62274 52.4118 9.04944C52.7932 9.46406 52.9848 9.99952 52.9848 10.654ZM51.9484 10.6856C51.9484 10.2812 51.8588 9.93445 51.6805 9.64533C51.4707 9.29579 51.1723 9.12102 50.7842 9.12102C50.3828 9.12102 50.0777 9.29579 49.8679 9.64533C49.6887 9.93445 49.6 10.2868 49.6 10.7033C49.6 11.1076 49.6896 11.4544 49.8679 11.7435C50.0844 12.0931 50.3857 12.2678 50.7747 12.2678C51.1561 12.2678 51.4555 12.0903 51.6709 11.7342C51.8559 11.4395 51.9484 11.09 51.9484 10.6856Z" fill="white"/>
<path d="M60.4757 8.49878L59.0693 12.8811H58.154L57.5714 10.9781C57.4236 10.5031 57.3035 10.0308 57.21 9.56228H57.1919C57.1051 10.0438 56.985 10.5152 56.8305 10.9781L56.2117 12.8811H55.2859L53.9635 8.49878H54.9903L55.4985 10.5821C55.6215 11.0748 55.7226 11.5443 55.8037 11.9886H55.8218C55.8961 11.6223 56.0191 11.1557 56.1927 10.5914L56.8305 8.49971H57.6448L58.256 10.5468C58.4038 11.046 58.5239 11.5266 58.6164 11.9896H58.644C58.7117 11.5387 58.8138 11.0581 58.9492 10.5468L59.4945 8.49971H60.4757V8.49878Z" fill="white"/>
<path d="M65.6547 12.8815H64.6555V10.3715C64.6555 9.59803 64.3542 9.2113 63.7497 9.2113C63.4532 9.2113 63.2138 9.31728 63.0279 9.53016C62.8439 9.74305 62.7505 9.99405 62.7505 10.2813V12.8806H61.7512V9.75142C61.7512 9.36655 61.7388 8.94914 61.715 8.49734H62.5931L62.6399 9.18248H62.6675C62.7838 8.96959 62.9574 8.79389 63.1852 8.65352C63.456 8.4899 63.7592 8.40717 64.091 8.40717C64.5106 8.40717 64.8595 8.53917 65.137 8.80412C65.4821 9.12856 65.6547 9.6129 65.6547 10.2562V12.8815Z" fill="white"/>
<path d="M68.4107 12.8813H67.4124V6.48819H68.4107V12.8813Z" fill="white"/>
<path d="M74.2938 10.654C74.2938 11.328 74.0964 11.8802 73.7017 12.3134C73.2879 12.7587 72.7387 12.9809 72.055 12.9809C71.3943 12.9809 70.8689 12.768 70.478 12.3403C70.087 11.9136 69.8916 11.3754 69.8916 10.7265C69.8916 10.0479 70.0928 9.49101 70.497 9.05874C70.9013 8.62646 71.4448 8.40985 72.1284 8.40985C72.7892 8.40985 73.3184 8.62274 73.7207 9.04944C74.1021 9.46406 74.2938 9.99952 74.2938 10.654ZM73.2564 10.6856C73.2564 10.2812 73.1668 9.93445 72.9885 9.64533C72.7796 9.29579 72.4803 9.12102 72.0931 9.12102C71.6908 9.12102 71.3857 9.29579 71.1769 9.64533C70.9976 9.93445 70.9089 10.2868 70.9089 10.7033C70.9089 11.1076 70.9986 11.4544 71.1769 11.7435C71.3933 12.0931 71.6946 12.2678 72.0836 12.2678C72.465 12.2678 72.7634 12.0903 72.9789 11.7342C73.1648 11.4395 73.2564 11.09 73.2564 10.6856Z" fill="white"/>
<path d="M79.1295 12.8814H78.2323L78.1579 12.3766H78.1303C77.8232 12.7791 77.3856 12.9809 76.8173 12.9809C76.393 12.9809 76.0498 12.8479 75.7914 12.5839C75.5569 12.3441 75.4396 12.0456 75.4396 11.6915C75.4396 11.156 75.6684 10.7479 76.1289 10.4653C76.5885 10.1827 77.235 10.0441 78.0673 10.0507V9.96885C78.0673 9.39154 77.7565 9.10336 77.1339 9.10336C76.6905 9.10336 76.2996 9.21213 75.9621 9.4278L75.759 8.78821C76.1766 8.53628 76.6924 8.40985 77.3008 8.40985C78.4754 8.40985 79.0647 9.01411 79.0647 10.2226V11.8365C79.0647 12.2743 79.0866 12.623 79.1295 12.8814ZM78.0921 11.3754V10.6995C76.9899 10.6809 76.4388 10.9756 76.4388 11.5827C76.4388 11.8114 76.5017 11.9824 76.6305 12.0968C76.7592 12.2111 76.9232 12.2678 77.1186 12.2678C77.3379 12.2678 77.5429 12.2 77.7298 12.0652C77.9176 11.9294 78.033 11.7575 78.0759 11.5464C78.0864 11.499 78.0921 11.4414 78.0921 11.3754Z" fill="white"/>
<path d="M84.8078 12.8813H83.921L83.8743 12.1775H83.8467C83.5635 12.713 83.081 12.9808 82.4031 12.9808C81.8615 12.9808 81.4105 12.7734 81.053 12.3588C80.6954 11.9442 80.5172 11.406 80.5172 10.745C80.5172 10.0357 80.7107 9.46116 81.0997 9.02237C81.4763 8.61333 81.9378 8.40881 82.487 8.40881C83.0906 8.40881 83.5129 8.60683 83.7532 9.00378H83.7723V6.48819H84.7725V11.7006C84.7725 12.1273 84.7839 12.5206 84.8078 12.8813ZM83.7723 11.0332V10.3025C83.7723 10.176 83.7628 10.0738 83.7446 9.9957C83.6884 9.76143 83.5673 9.56435 83.3833 9.40538C83.1974 9.24641 82.9733 9.16647 82.7149 9.16647C82.3421 9.16647 82.0503 9.31056 81.8358 9.59967C81.6232 9.88879 81.5154 10.2579 81.5154 10.7087C81.5154 11.1419 81.6175 11.4933 81.8224 11.7639C82.0389 12.052 82.3306 12.1961 82.6958 12.1961C83.0238 12.1961 83.286 12.0762 83.4853 11.8354C83.6779 11.6133 83.7723 11.3455 83.7723 11.0332Z" fill="white"/>
<path d="M93.3538 10.654C93.3538 11.328 93.1564 11.8802 92.7617 12.3134C92.3479 12.7587 91.8006 12.9809 91.1151 12.9809C90.4562 12.9809 89.9308 12.768 89.538 12.3403C89.1471 11.9136 88.9516 11.3754 88.9516 10.7265C88.9516 10.0479 89.1528 9.49101 89.5571 9.05874C89.9614 8.62646 90.5048 8.40985 91.1904 8.40985C91.8492 8.40985 92.3803 8.62274 92.7808 9.04944C93.1622 9.46406 93.3538 9.99952 93.3538 10.654ZM92.3183 10.6856C92.3183 10.2812 92.2287 9.93445 92.0504 9.64533C91.8397 9.29579 91.5422 9.12102 91.1532 9.12102C90.7527 9.12102 90.4476 9.29579 90.2369 9.64533C90.0577 9.93445 89.969 10.2868 89.969 10.7033C89.969 11.1076 90.0586 11.4544 90.2369 11.7435C90.4533 12.0931 90.7546 12.2678 91.1437 12.2678C91.525 12.2678 91.8254 12.0903 92.0409 11.7342C92.2249 11.4395 92.3183 11.09 92.3183 10.6856Z" fill="white"/>
<path d="M98.7274 12.8815H97.7291V10.3715C97.7291 9.59803 97.4278 9.2113 96.8224 9.2113C96.5258 9.2113 96.2865 9.31728 96.1015 9.53016C95.9166 9.74305 95.8241 9.99405 95.8241 10.2813V12.8806H94.8239V9.75142C94.8239 9.36655 94.8125 8.94914 94.7886 8.49734H95.6658L95.7125 9.18248H95.7402C95.8575 8.96959 96.031 8.79389 96.2579 8.65352C96.5297 8.4899 96.8319 8.40717 97.1647 8.40717C97.5832 8.40717 97.9322 8.53917 98.2097 8.80412C98.5558 9.12856 98.7274 9.6129 98.7274 10.2562V12.8815Z" fill="white"/>
<path d="M105.452 9.22881H104.352V11.3577C104.352 11.8987 104.547 12.1692 104.934 12.1692C105.113 12.1692 105.262 12.1544 105.379 12.1237L105.405 12.8627C105.208 12.9353 104.948 12.9715 104.629 12.9715C104.234 12.9715 103.927 12.8544 103.705 12.6201C103.482 12.3858 103.371 11.9917 103.371 11.4385V9.22881H102.714V8.49904H103.371V7.69584L104.351 7.40765V8.49811H105.451V9.22881H105.452Z" fill="white"/>
<path d="M110.741 12.8813H109.741V10.3899C109.741 9.60432 109.44 9.21109 108.836 9.21109C108.373 9.21109 108.056 9.43885 107.883 9.89437C107.853 9.99012 107.836 10.1073 107.836 10.2448V12.8804H106.838V6.48819H107.836V9.12928H107.855C108.17 8.64866 108.621 8.40881 109.205 8.40881C109.619 8.40881 109.961 8.54082 110.233 8.80577C110.572 9.13579 110.741 9.62663 110.741 10.2755V12.8813Z" fill="white"/>
<path d="M116.198 10.4824C116.198 10.6572 116.184 10.804 116.161 10.924H113.164C113.177 11.3572 113.32 11.6872 113.598 11.9159C113.851 12.1204 114.178 12.2227 114.579 12.2227C115.022 12.2227 115.426 12.1539 115.791 12.0154L115.947 12.6921C115.521 12.8725 115.019 12.9627 114.439 12.9627C113.743 12.9627 113.194 12.7628 112.798 12.363C112.399 11.9633 112.202 11.4269 112.202 10.7538C112.202 10.0929 112.386 9.54253 112.757 9.10374C113.144 8.63521 113.667 8.40094 114.328 8.40094C114.974 8.40094 115.466 8.63521 115.797 9.10374C116.065 9.4756 116.198 9.93576 116.198 10.4824ZM115.244 10.2305C115.252 9.94134 115.186 9.6922 115.051 9.4821C114.877 9.21158 114.613 9.07585 114.256 9.07585C113.929 9.07585 113.663 9.20786 113.46 9.47281C113.294 9.68383 113.196 9.93577 113.164 10.2305H115.244Z" fill="white"/>
</svg>
