<svg width="23" height="23" viewBox="0 0 23 23" fill="none" xmlns="http://www.w3.org/2000/svg">
<path d="M4.96242 3.84781C5.02675 3.78348 5.05891 3.75131 5.08725 3.72528C5.78399 3.08506 6.85494 3.08506 7.55167 3.72528C7.58001 3.75131 7.61218 3.78348 7.6765 3.84781L9.00432 5.17562C9.73465 5.90596 9.94353 7.00889 9.53082 7.9557C9.1181 8.90252 9.32698 10.0055 10.0573 10.7358L12.2398 12.9183C12.9702 13.6486 14.0731 13.8575 15.0199 13.4448C15.9667 13.0321 17.0697 13.241 17.8 13.9713L19.1278 15.2991C19.1921 15.3634 19.2243 15.3956 19.2503 15.4239C19.8905 16.1207 19.8905 17.1916 19.2503 17.8884C19.2243 17.9167 19.1921 17.9489 19.1278 18.0132L18.3207 18.8203C17.6635 19.4775 16.716 19.7534 15.8086 19.5518C9.62609 18.1779 4.79769 13.3495 3.4238 7.16701C3.22216 6.25964 3.49807 5.31215 4.15533 4.6549L4.96242 3.84781Z" stroke="#2D264B" stroke-width="1.36588"/>
</svg>
