<svg width="11" height="19" viewBox="0 0 11 19" fill="none" xmlns="http://www.w3.org/2000/svg">
<path fill-rule="evenodd" clip-rule="evenodd" d="M3.89892 1.69003C4.79533 0.793465 6.01118 0.289701 7.27901 0.289551H9.73759C9.91872 0.289551 10.0924 0.361503 10.2205 0.489579C10.3486 0.617655 10.4205 0.791363 10.4205 0.97249V4.2506C10.4205 4.43172 10.3486 4.60543 10.2205 4.73351C10.0924 4.86158 9.91872 4.93354 9.73759 4.93354H7.27901C7.26107 4.93354 7.24331 4.93707 7.22674 4.94393C7.21017 4.9508 7.19511 4.96086 7.18243 4.97354C7.16974 4.98622 7.15968 5.00128 7.15282 5.01785C7.14595 5.03443 7.14242 5.05219 7.14242 5.07012V6.84576H9.73759C9.84141 6.84571 9.94388 6.86932 10.0372 6.91481C10.1305 6.96031 10.2123 7.02648 10.2762 7.1083C10.3401 7.19012 10.3845 7.28544 10.406 7.387C10.4276 7.48857 10.4257 7.59371 10.4005 7.69443L9.58097 10.9725C9.544 11.1203 9.45867 11.2515 9.33855 11.3453C9.21843 11.439 9.07042 11.4898 8.91806 11.4897H7.14242V17.363C7.14242 17.5442 7.07047 17.7179 6.94239 17.8459C6.81432 17.974 6.64061 18.046 6.45948 18.046H3.18138C3.00025 18.046 2.82654 17.974 2.69846 17.8459C2.57039 17.7179 2.49844 17.5442 2.49844 17.363V11.4897H0.722795C0.541668 11.4897 0.36796 11.4178 0.239884 11.2897C0.111808 11.1616 0.039856 10.9879 0.039856 10.8068V7.5287C0.039856 7.43902 0.0575206 7.35021 0.0918415 7.26735C0.126162 7.1845 0.176467 7.10921 0.239884 7.04579C0.303301 6.98238 0.378588 6.93207 0.461445 6.89775C0.544303 6.86343 0.63311 6.84576 0.722795 6.84576H2.49844V5.07012C2.49859 3.80229 3.00235 2.58645 3.89892 1.69003ZM7.27901 1.65543C6.37338 1.65543 5.50483 2.01519 4.86445 2.65557C4.22408 3.29595 3.86431 4.16449 3.86431 5.07012V7.5287C3.86431 7.70983 3.79236 7.88354 3.66429 8.01161C3.53621 8.13969 3.3625 8.21164 3.18138 8.21164H1.40573V10.1239H3.18138C3.3625 10.1239 3.53621 10.1958 3.66429 10.3239C3.79236 10.452 3.86431 10.6257 3.86431 10.8068V16.6801H5.77654V10.8068C5.77654 10.6257 5.8485 10.452 5.97657 10.3239C6.10465 10.1958 6.27836 10.1239 6.45948 10.1239H8.38446L8.86252 8.21164H6.45948C6.27836 8.21164 6.10465 8.13969 5.97657 8.01161C5.8485 7.88354 5.77654 7.70983 5.77654 7.5287V5.07012C5.77654 4.67164 5.93484 4.28949 6.21661 4.00772C6.49837 3.72595 6.88053 3.56766 7.27901 3.56766H9.05465V1.65543H7.27901Z" fill="#E2E8F0"/>
</svg>
