<svg width="129" height="38" viewBox="0 0 129 38" fill="none" xmlns="http://www.w3.org/2000/svg">
<path d="M124.236 37.21H5.21551C2.59826 37.21 0.454712 35.1172 0.454712 32.5618V4.67281C0.454712 2.11748 2.59826 0.0246383 5.21551 0.0246383H124.236C126.853 0.0246383 128.996 2.11748 128.996 4.67281V32.5618C128.996 35.1172 126.853 37.21 124.236 37.21Z" fill="black"/>
<path d="M124.236 0.769507C126.44 0.769507 128.233 2.5207 128.233 4.67281V32.5618C128.233 34.7139 126.44 36.4651 124.236 36.4651H5.21551C3.01126 36.4651 1.21763 34.7139 1.21763 32.5618V4.67281C1.21763 2.5207 3.01126 0.769507 5.21551 0.769507H124.236ZM124.236 0.0246383H5.21551C2.59826 0.0246383 0.454712 2.11748 0.454712 4.67281V32.5618C0.454712 35.1172 2.59826 37.21 5.21551 37.21H124.236C126.853 37.21 128.996 35.1172 128.996 32.5618V4.67281C128.996 2.11748 126.853 0.0246383 124.236 0.0246383Z" fill="#A6A6A6"/>
<path d="M45.6035 9.54759C45.6035 10.3238 45.3654 10.9455 44.8965 11.4092C44.3573 11.9588 43.6551 12.2354 42.7946 12.2354C41.9722 12.2354 41.27 11.9542 40.6939 11.3999C40.1167 10.8375 39.8286 10.1472 39.8286 9.32099C39.8286 8.49478 40.1167 7.80452 40.6939 7.24674C41.27 6.6878 41.9722 6.40659 42.7946 6.40659C43.204 6.40659 43.5944 6.48909 43.967 6.64248C44.3383 6.79703 44.6406 7.0062 44.8596 7.26417L44.3621 7.75456C43.9801 7.31414 43.4599 7.09684 42.7946 7.09684C42.1948 7.09684 41.6746 7.30136 41.2331 7.71388C40.7963 8.12757 40.5773 8.66327 40.5773 9.32099C40.5773 9.9787 40.7963 10.5191 41.2331 10.9327C41.6746 11.3406 42.1948 11.5498 42.7946 11.5498C43.4314 11.5498 43.967 11.3406 44.3895 10.9281C44.668 10.655 44.8263 10.2785 44.8679 9.79743H42.7946V9.12576H45.5606C45.594 9.27102 45.6035 9.41163 45.6035 9.54759Z" fill="white" stroke="white" stroke-width="0.100842" stroke-miterlimit="10"/>
<path d="M49.9918 7.21819H47.3936V8.9845H49.7359V9.65616H47.3936V11.4225H49.9918V12.1069H46.658V6.53375H49.9918V7.21819Z" fill="white" stroke="white" stroke-width="0.100842" stroke-miterlimit="10"/>
<path d="M53.0893 12.1069H52.3538V7.21819H50.7601V6.53375H54.6842V7.21819H53.0893V12.1069Z" fill="white" stroke="white" stroke-width="0.100842" stroke-miterlimit="10"/>
<path d="M57.5237 12.1069V6.53375H58.258V12.1069H57.5237Z" fill="white" stroke="white" stroke-width="0.100842" stroke-miterlimit="10"/>
<path d="M61.5131 12.1069H60.7835V7.21819H59.1839V6.53375H63.1127V7.21819H61.5131V12.1069Z" fill="white" stroke="white" stroke-width="0.100842" stroke-miterlimit="10"/>
<path d="M70.5415 11.3903C69.9785 11.9539 69.281 12.2351 68.4491 12.2351C67.6124 12.2351 66.9149 11.9539 66.352 11.3903C65.7902 10.8279 65.5105 10.1377 65.5105 9.32074C65.5105 8.50383 65.7902 7.81357 66.352 7.25115C66.9149 6.68756 67.6124 6.40634 68.4491 6.40634C69.2763 6.40634 69.9737 6.68756 70.5367 7.25579C71.1032 7.82287 71.3829 8.50848 71.3829 9.32074C71.3829 10.1377 71.1032 10.8279 70.5415 11.3903ZM66.8959 10.9232C67.3196 11.3404 67.8349 11.5495 68.4491 11.5495C69.0585 11.5495 69.5786 11.3404 69.9975 10.9232C70.4201 10.506 70.6343 9.97033 70.6343 9.32074C70.6343 8.67116 70.4201 8.13546 69.9975 7.71829C69.5786 7.30111 69.0585 7.09195 68.4491 7.09195C67.8349 7.09195 67.3196 7.30111 66.8959 7.71829C66.4734 8.13546 66.2591 8.67116 66.2591 9.32074C66.2591 9.97033 66.4734 10.506 66.8959 10.9232Z" fill="white" stroke="white" stroke-width="0.100842" stroke-miterlimit="10"/>
<path d="M72.4153 12.1068V6.53369H73.308L76.0835 10.8681H76.1157L76.0835 9.7967V6.53369H76.8179V12.1068H76.0514L73.1449 7.55861H73.1128L73.1449 8.63466V12.1068H72.4153Z" fill="white" stroke="white" stroke-width="0.100842" stroke-miterlimit="10"/>
<path d="M65.3304 20.2461C63.094 20.2461 61.2671 21.9078 61.2671 24.2005C61.2671 26.4746 63.094 28.1538 65.3304 28.1538C67.5715 28.1538 69.3985 26.4746 69.3985 24.2005C69.3985 21.9078 67.5715 20.2461 65.3304 20.2461ZM65.3304 26.5966C64.1033 26.5966 63.0476 25.6077 63.0476 24.2005C63.0476 22.7747 64.1033 21.8032 65.3304 21.8032C66.5575 21.8032 67.618 22.7747 67.618 24.2005C67.618 25.6077 66.5575 26.5966 65.3304 26.5966ZM56.4646 20.2461C54.2234 20.2461 52.4013 21.9078 52.4013 24.2005C52.4013 26.4746 54.2234 28.1538 56.4646 28.1538C58.7046 28.1538 60.5279 26.4746 60.5279 24.2005C60.5279 21.9078 58.7046 20.2461 56.4646 20.2461ZM56.4646 26.5966C55.2363 26.5966 54.177 25.6077 54.177 24.2005C54.177 22.7747 55.2363 21.8032 56.4646 21.8032C57.6917 21.8032 58.7474 22.7747 58.7474 24.2005C58.7474 25.6077 57.6917 26.5966 56.4646 26.5966ZM45.9147 21.4581V23.1384H50.0244C49.9042 24.0773 49.5829 24.7676 49.0901 25.2487C48.4903 25.8297 47.5559 26.4746 45.9147 26.4746C43.3855 26.4746 41.405 24.4817 41.405 22.0124C41.405 19.543 43.3855 17.5501 45.9147 17.5501C47.2822 17.5501 48.2772 18.0719 49.0116 18.7482L50.2244 17.5641C49.1972 16.6065 47.8309 15.871 45.9147 15.871C42.4464 15.871 39.5316 18.6262 39.5316 22.0124C39.5316 25.3986 42.4464 28.1538 45.9147 28.1538C47.7892 28.1538 49.1972 27.5541 50.3041 26.4293C51.4384 25.3219 51.7919 23.7647 51.7919 22.5074C51.7919 22.1169 51.7585 21.7579 51.699 21.4581H45.9147ZM89.0547 22.7607C88.7202 21.8764 87.6883 20.2461 85.5864 20.2461C83.5036 20.2461 81.7694 21.8485 81.7694 24.2005C81.7694 26.4153 83.4857 28.1538 85.7864 28.1538C87.6466 28.1538 88.7202 27.0463 89.1618 26.4014L87.7811 25.5031C87.3205 26.1609 86.6933 26.5966 85.7864 26.5966C84.8854 26.5966 84.2391 26.1934 83.8249 25.3986L89.2415 23.2104L89.0547 22.7607ZM83.5321 24.0773C83.4857 22.5527 84.7449 21.7718 85.6471 21.7718C86.3541 21.7718 86.9539 22.1169 87.1539 22.6108L83.5321 24.0773ZM79.1296 27.9132H80.9101V16.2928H79.1296V27.9132ZM76.2136 21.1269H76.1541C75.7542 20.6644 74.9913 20.2461 74.0248 20.2461C71.9967 20.2461 70.1424 21.9845 70.1424 24.2133C70.1424 26.4293 71.9967 28.1538 74.0248 28.1538C74.9913 28.1538 75.7542 27.7319 76.1541 27.2555H76.2136V27.8226C76.2136 29.3344 75.3864 30.1467 74.0522 30.1467C72.9643 30.1467 72.2895 29.3797 72.011 28.7348L70.4625 29.3658C70.9089 30.4139 72.0907 31.7038 74.0522 31.7038C76.1398 31.7038 77.9013 30.5046 77.9013 27.5867V20.4866H76.2136V21.1269ZM74.1772 26.5966C72.9501 26.5966 71.9229 25.5938 71.9229 24.2133C71.9229 22.82 72.9501 21.8032 74.1772 21.8032C75.3864 21.8032 76.3397 22.82 76.3397 24.2133C76.3397 25.5938 75.3864 26.5966 74.1772 26.5966ZM97.3908 16.2928H93.1323V27.9132H94.9081V23.5102H97.3908C99.363 23.5102 101.297 22.1169 101.297 19.9009C101.297 17.6861 99.3582 16.2928 97.3908 16.2928ZM97.4372 21.8938H94.9081V17.9092H97.4372C98.7631 17.9092 99.5201 18.9841 99.5201 19.9009C99.5201 20.8004 98.7631 21.8938 97.4372 21.8938ZM108.414 20.224C107.131 20.224 105.797 20.7771 105.249 22.0031L106.824 22.648C107.164 22.0031 107.787 21.7939 108.447 21.7939C109.368 21.7939 110.302 22.3343 110.316 23.2883V23.4103C109.995 23.229 109.307 22.9606 108.461 22.9606C106.764 22.9606 105.034 23.8728 105.034 25.5752C105.034 27.1323 106.424 28.1352 107.987 28.1352C109.182 28.1352 109.841 27.6088 110.256 26.9964H110.316V27.8946H112.031V23.437C112.031 21.3767 110.456 20.224 108.414 20.224ZM108.2 26.592C107.619 26.592 106.81 26.3108 106.81 25.6077C106.81 24.7083 107.819 24.3632 108.693 24.3632C109.475 24.3632 109.841 24.5317 110.316 24.7536C110.177 25.8297 109.229 26.592 108.2 26.592ZM118.28 20.4785L116.239 25.5159H116.178L114.068 20.4785H112.153L115.324 27.5181L113.514 31.4354H115.37L120.256 20.4785H118.28ZM102.273 27.9132H104.054V16.2928H102.273V27.9132Z" fill="white"/>
<path d="M10.3919 7.03272C10.1122 7.31858 9.95036 7.76364 9.95036 8.34001V28.8989C9.95036 29.4752 10.1122 29.9203 10.3919 30.2062L10.461 30.2689L22.2606 18.7531V18.4812L10.461 6.96532L10.3919 7.03272Z" fill="url(#paint0_linear_1_205)"/>
<path d="M26.1875 22.5936L22.2586 18.753V18.4811L26.1922 14.6406L26.2803 14.6905L30.9387 17.2784C32.2682 18.0128 32.2682 19.2214 30.9387 19.9604L26.2803 22.5436L26.1875 22.5936Z" fill="url(#paint1_linear_1_205)"/>
<path d="M26.2814 22.5431L22.2598 18.6166L10.3911 30.2056C10.8326 30.6588 11.5527 30.7134 12.3716 30.2602L26.2814 22.5431Z" fill="url(#paint2_linear_1_205)"/>
<path d="M26.2815 14.6911L12.3716 6.97401C11.5528 6.52546 10.8327 6.58008 10.3911 7.03328L22.2598 18.6177L26.2815 14.6911Z" fill="url(#paint3_linear_1_205)"/>
<defs>
<linearGradient id="paint0_linear_1_205" x1="21.2129" y1="29.113" x2="5.61592" y2="13.138" gradientUnits="userSpaceOnUse">
<stop stop-color="#00A0FF"/>
<stop offset="0.0066" stop-color="#00A1FF"/>
<stop offset="0.2601" stop-color="#00BEFF"/>
<stop offset="0.5122" stop-color="#00D2FF"/>
<stop offset="0.7604" stop-color="#00DFFF"/>
<stop offset="1" stop-color="#00E3FF"/>
</linearGradient>
<linearGradient id="paint1_linear_1_205" x1="32.6699" y1="18.6158" x2="9.63058" y2="18.6158" gradientUnits="userSpaceOnUse">
<stop stop-color="#FFE000"/>
<stop offset="0.4087" stop-color="#FFBD00"/>
<stop offset="0.7754" stop-color="#FFA500"/>
<stop offset="1" stop-color="#FF9C00"/>
</linearGradient>
<linearGradient id="paint2_linear_1_205" x1="24.0946" y1="16.482" x2="2.94374" y2="-5.18129" gradientUnits="userSpaceOnUse">
<stop stop-color="#FF3A44"/>
<stop offset="1" stop-color="#C31162"/>
</linearGradient>
<linearGradient id="paint3_linear_1_205" x1="7.40353" y1="37.0466" x2="16.8483" y2="27.373" gradientUnits="userSpaceOnUse">
<stop stop-color="#32A071"/>
<stop offset="0.0685" stop-color="#2DA771"/>
<stop offset="0.4762" stop-color="#15CF74"/>
<stop offset="0.8009" stop-color="#06E775"/>
<stop offset="1" stop-color="#00F076"/>
</linearGradient>
</defs>
</svg>
