<svg width="16" height="16" viewBox="0 0 16 16" fill="none" xmlns="http://www.w3.org/2000/svg">
<path d="M7.95824 0.883545C5.98136 0.883545 5.73277 0.892651 4.95604 0.927253C4.17931 0.963676 3.65026 1.08569 3.18677 1.26599C2.7006 1.44885 2.26024 1.73569 1.89647 2.10646C1.52593 2.47042 1.23912 2.91073 1.056 3.39676C0.875703 3.85934 0.752774 4.3893 0.717262 5.1633C0.682659 5.94185 0.673553 6.18953 0.673553 8.16914C0.673553 10.1469 0.682659 10.3946 0.717262 11.1713C0.753685 11.9472 0.875703 12.4762 1.056 12.9397C1.24267 13.4187 1.49126 13.8248 1.89647 14.23C2.30077 14.6352 2.70689 14.8847 3.18586 15.0705C3.65026 15.2508 4.1784 15.3737 4.95422 15.4092C5.73185 15.4438 5.97953 15.4529 7.95824 15.4529C9.93694 15.4529 10.1837 15.4438 10.9613 15.4092C11.7363 15.3728 12.2671 15.2508 12.7306 15.0705C13.2165 14.8875 13.6565 14.6007 14.02 14.23C14.4252 13.8248 14.6738 13.4187 14.8605 12.9397C15.0399 12.4762 15.1628 11.9472 15.1992 11.1713C15.2338 10.3946 15.2429 10.1469 15.2429 8.16823C15.2429 6.18953 15.2338 5.94185 15.1992 5.16421C15.1628 4.3893 15.0399 3.85934 14.8605 3.39676C14.6774 2.91071 14.3906 2.4704 14.02 2.10646C13.6563 1.73556 13.2159 1.4487 12.7297 1.26599C12.2653 1.08569 11.7353 0.962766 10.9604 0.927253C10.1828 0.892651 9.93603 0.883545 7.95641 0.883545H7.95915H7.95824ZM7.30535 2.19661H7.95915C9.90416 2.19661 10.1345 2.20298 10.9022 2.2385C11.6124 2.27037 11.9985 2.38965 12.2553 2.48891C12.5949 2.62094 12.8381 2.77938 13.093 3.03435C13.348 3.28931 13.5055 3.53153 13.6376 3.87209C13.7377 4.12796 13.8561 4.51405 13.888 5.22431C13.9235 5.99193 13.9308 6.22231 13.9308 8.16641C13.9308 10.1105 13.9235 10.3418 13.888 11.1094C13.8561 11.8197 13.7368 12.2049 13.6376 12.4616C13.5208 12.7779 13.3344 13.0639 13.0921 13.2985C12.8372 13.5534 12.5949 13.711 12.2544 13.843C11.9994 13.9432 11.6133 14.0615 10.9022 14.0943C10.1345 14.1289 9.90416 14.1371 7.95915 14.1371C6.01414 14.1371 5.78285 14.1289 5.01522 14.0943C4.30497 14.0615 3.91979 13.9432 3.663 13.843C3.34658 13.7264 3.06031 13.5403 2.82527 13.2985C2.58282 13.0636 2.39613 12.7773 2.27892 12.4607C2.17966 12.2049 2.06037 11.8188 2.0285 11.1085C1.9939 10.3409 1.98662 10.1105 1.98662 8.16458C1.98662 6.21957 1.9939 5.99011 2.0285 5.22248C2.06129 4.51223 2.17966 4.12614 2.27983 3.86935C2.41186 3.52971 2.5703 3.28658 2.82527 3.03162C3.08023 2.77665 3.32245 2.61912 3.663 2.48709C3.91979 2.38692 4.30497 2.26855 5.01522 2.23576C5.68724 2.2048 5.94766 2.1957 7.30535 2.19479V2.19661ZM11.8473 3.40587C11.7325 3.40587 11.6189 3.42848 11.5128 3.47241C11.4068 3.51634 11.3104 3.58073 11.2292 3.6619C11.148 3.74308 11.0837 3.83944 11.0397 3.9455C10.9958 4.05156 10.9732 4.16523 10.9732 4.28003C10.9732 4.39482 10.9958 4.5085 11.0397 4.61456C11.0837 4.72061 11.148 4.81698 11.2292 4.89815C11.3104 4.97933 11.4068 5.04372 11.5128 5.08765C11.6189 5.13158 11.7325 5.15419 11.8473 5.15419C12.0792 5.15419 12.3015 5.06209 12.4655 4.89815C12.6294 4.73422 12.7215 4.51187 12.7215 4.28003C12.7215 4.04819 12.6294 3.82584 12.4655 3.6619C12.3015 3.49797 12.0792 3.40587 11.8473 3.40587ZM7.95915 4.42754C7.46294 4.4198 6.97015 4.51085 6.50947 4.69538C6.04879 4.87992 5.62943 5.15425 5.27579 5.50242C4.92215 5.85058 4.6413 6.26562 4.44961 6.72337C4.25791 7.18111 4.15918 7.67242 4.15918 8.16868C4.15918 8.66495 4.25791 9.15625 4.44961 9.614C4.6413 10.0717 4.92215 10.4868 5.27579 10.8349C5.62943 11.1831 6.04879 11.4574 6.50947 11.642C6.97015 11.8265 7.46294 11.9176 7.95915 11.9098C8.94125 11.8945 9.87794 11.4936 10.567 10.7937C11.2561 10.0937 11.6424 9.15091 11.6424 8.16868C11.6424 7.18646 11.2561 6.24363 10.567 5.54369C9.87794 4.84376 8.94125 4.44287 7.95915 4.42754ZM7.95915 5.7397C8.60323 5.7397 9.22094 5.99556 9.67638 6.451C10.1318 6.90643 10.3877 7.52414 10.3877 8.16823C10.3877 8.81231 10.1318 9.43002 9.67638 9.88546C9.22094 10.3409 8.60323 10.5968 7.95915 10.5968C7.31506 10.5968 6.69735 10.3409 6.24192 9.88546C5.78648 9.43002 5.53062 8.81231 5.53062 8.16823C5.53062 7.52414 5.78648 6.90643 6.24192 6.451C6.69735 5.99556 7.31506 5.7397 7.95915 5.7397Z" fill="#E2E8F0"/>
</svg>
