<svg width="23" height="23" viewBox="0 0 23 23" fill="none" xmlns="http://www.w3.org/2000/svg">
<path d="M3.05487 7.50141L10.2394 12.2911C10.5387 12.4908 10.8904 12.5973 11.2501 12.5973C11.6099 12.5973 11.9616 12.4908 12.2609 12.2911L19.4454 7.50141M4.87604 17.5178H17.6242C18.1072 17.5178 18.5705 17.326 18.912 16.9844C19.2535 16.6429 19.4454 16.1797 19.4454 15.6967V6.59082C19.4454 6.10782 19.2535 5.6446 18.912 5.30306C18.5705 4.96153 18.1072 4.76965 17.6242 4.76965H4.87604C4.39304 4.76965 3.92981 4.96153 3.58828 5.30306C3.24674 5.6446 3.05487 6.10782 3.05487 6.59082V15.6967C3.05487 16.1797 3.24674 16.6429 3.58828 16.9844C3.92981 17.326 4.39304 17.5178 4.87604 17.5178Z" stroke="white" stroke-width="1.82117" stroke-linecap="round" stroke-linejoin="round"/>
</svg>
