<svg width="180" height="87" viewBox="0 0 180 87" fill="none" xmlns="http://www.w3.org/2000/svg">
<rect x="0.951686" y="0.432399" width="177.888" height="85.9185" rx="20.8416" fill="white"/>
<g clip-path="url(#clip0_1_288)">
<path d="M70.4596 39.1661C70.5615 38.508 70.6144 37.8433 70.618 37.1774C70.618 33.8952 69.3147 30.7473 66.9947 28.4256C64.6747 26.1039 61.5277 24.7984 58.2455 24.7961H45.8642V37.1774C45.8651 39.2448 46.3863 41.2787 47.3797 43.0918C48.3731 44.9049 49.8069 46.4388 51.5489 47.5523C51.4397 48.2126 51.3838 48.8806 51.3817 49.5499V61.7199C51.3816 61.7473 51.3871 61.7743 51.3979 61.7995C51.4086 61.8246 51.4243 61.8473 51.444 61.8662C51.4638 61.8852 51.4871 61.8999 51.5127 61.9095C51.5383 61.9192 51.5655 61.9235 51.5929 61.9224H63.7277C66.3975 61.9233 68.9959 61.0607 71.135 59.4634C73.2741 57.866 74.8392 55.6196 75.5965 53.0596C76.3539 50.4995 76.2628 47.7632 75.337 45.2592C74.4111 42.7551 72.7002 40.6177 70.4596 39.1661ZM48.6273 37.1774V27.5592H58.2455C60.7941 27.5639 63.2369 28.579 65.0383 30.382C66.8396 32.185 67.8525 34.6287 67.8548 37.1774C67.8548 37.4061 67.8548 37.6437 67.8548 37.8725C64.882 36.8336 61.6251 36.9649 58.7455 38.2396C55.8659 39.5144 53.5792 41.8371 52.3496 44.7364C51.2001 43.8397 50.2698 42.693 49.6295 41.3833C48.9891 40.0736 48.6554 38.6352 48.6537 37.1774M67.2477 40.6005C66.7957 41.786 66.1134 42.8703 65.2401 43.7907C64.3669 44.7112 63.3201 45.4496 62.16 45.9634C60.9999 46.4772 59.7496 46.7561 58.4811 46.7841C57.2127 46.8122 55.9512 46.5887 54.7696 46.1267C55.2216 44.9412 55.9039 43.857 56.7771 42.9365C57.6503 42.016 58.6972 41.2776 59.8572 40.7638C61.0173 40.2501 62.2677 39.9711 63.5361 39.9431C64.8046 39.915 66.066 40.1385 67.2477 40.6005ZM63.7277 59.1592H54.1096V49.5499C54.1096 49.3123 54.1096 49.0835 54.1096 48.8547C57.0825 49.8936 60.3393 49.7624 63.2189 48.4876C66.0986 47.2128 68.3853 44.8901 69.6148 41.9908C71.1917 43.2218 72.3447 44.9145 72.9127 46.8326C73.4807 48.7507 73.4354 50.7983 72.783 52.6894C72.1307 54.5804 70.904 56.2205 69.2742 57.3805C67.6444 58.5404 65.693 59.1623 63.6925 59.1592" fill="#1D4ED8"/>
<path d="M90.5935 54.9353C90.3505 55.3323 89.9866 55.6407 89.5552 55.8153C89.868 55.8988 90.1652 56.0325 90.4351 56.2113C90.6578 56.3734 90.8538 56.5694 91.0159 56.7921C91.1638 57.0013 91.2767 57.2331 91.3503 57.4785C91.4204 57.7186 91.4559 57.9675 91.4559 58.2176C91.4714 58.6799 91.3652 59.1381 91.1479 59.5464C90.9489 59.8978 90.6719 60.1988 90.3383 60.4264C89.9892 60.661 89.6022 60.8336 89.1944 60.9368C88.7622 61.0414 88.3191 61.0946 87.8744 61.0952H83.9761V51.257H87.364C87.9012 51.2496 88.437 51.3148 88.9568 51.4506C89.3571 51.5573 89.7335 51.7395 90.0655 51.9874C90.343 52.1917 90.5665 52.4605 90.7167 52.7706C90.8581 53.0736 90.9302 53.4042 90.9279 53.7385C90.9295 54.1607 90.8137 54.5751 90.5935 54.9353ZM88.6928 53.1754C88.2578 52.9269 87.7576 52.8164 87.2584 52.8586H85.7272V55.1993H87.2584C87.7485 55.2363 88.2392 55.1357 88.6752 54.9089C88.8192 54.8136 88.9356 54.6822 89.0128 54.5278C89.09 54.3733 89.1253 54.2013 89.1152 54.029C89.1173 53.8659 89.08 53.7047 89.0065 53.5592C88.933 53.4136 88.8253 53.288 88.6928 53.193M89.4936 57.5312C89.3976 57.3592 89.254 57.2187 89.08 57.1265C88.877 57.0201 88.6563 56.9515 88.4288 56.9241C88.1377 56.8786 87.8433 56.858 87.5488 56.8625H85.7272V59.5024H87.628C88.1541 59.5412 88.6807 59.4347 89.1504 59.1944C89.3146 59.0886 89.4471 58.9403 89.5339 58.7652C89.6207 58.5901 89.6584 58.3948 89.6431 58.2C89.651 57.9784 89.6057 57.7582 89.5112 57.5576" fill="#1D4ED8"/>
<path d="M98.8653 59.5464C99.1289 59.6189 99.4014 59.6544 99.6748 59.652C99.8363 59.6642 99.9985 59.6414 100.15 59.5852C100.302 59.529 100.44 59.4407 100.555 59.3264C100.799 59.0145 100.912 58.6203 100.872 58.2264V51.2922H102.632V58.332C102.641 58.7964 102.579 59.2595 102.447 59.7048C102.344 60.05 102.167 60.3685 101.928 60.6376C101.703 60.8784 101.421 61.0598 101.109 61.1656C100.76 61.2822 100.394 61.3387 100.027 61.3328C99.5376 61.3409 99.0494 61.2847 98.5749 61.1656C98.2175 61.078 97.8718 60.948 97.5453 60.7784L98.1877 59.2736C98.4072 59.3996 98.6404 59.5 98.8829 59.5728" fill="#1D4ED8"/>
<path d="M113.147 51.257C113.918 51.2499 114.686 51.3567 115.426 51.5738C116.085 51.7455 116.704 52.0445 117.248 52.4538C117.761 52.8638 118.171 53.3881 118.445 53.9849C118.745 54.6507 118.893 55.3754 118.876 56.1057C118.886 56.8336 118.745 57.5556 118.462 58.2264C118.195 58.8297 117.795 59.3651 117.292 59.7928C116.776 60.2294 116.177 60.5585 115.532 60.7608C114.791 60.9888 114.019 61.1016 113.244 61.0952H110.604V51.257H113.147ZM114.74 59.3176C115.186 59.2159 115.606 59.021 115.972 58.7456C116.317 58.4678 116.586 58.1077 116.755 57.6985C116.952 57.2034 117.045 56.6733 117.028 56.1409C117.045 55.6333 116.949 55.1283 116.746 54.6625C116.572 54.2661 116.303 53.9185 115.963 53.6506C115.603 53.3743 115.19 53.1764 114.749 53.0698C114.233 52.9494 113.704 52.8903 113.174 52.8938H112.294V59.4936H113.112C113.66 59.5023 114.207 59.4432 114.74 59.3176Z" fill="#1D4ED8"/>
<path d="M132.225 61.1304L131.345 58.7984H127.262L126.435 61.1304H124.596L128.248 51.257H130.377L134.029 61.1304H132.225ZM130.8 57.1617L129.339 53.061L127.878 57.1617H130.8Z" fill="#1D4ED8"/>
<path d="M84.0376 44.0852H85.8064V30.9471L84.0376 30.5775V44.0852Z" fill="#1D4ED8"/>
<path d="M129.911 44.0852C132.428 44.0852 134.117 42.5628 134.117 39.6853C134.077 38.2563 133.861 36.8377 133.475 35.4614L131.803 35.8926C132.127 37.205 132.322 38.5461 132.384 39.8965C132.384 41.2341 131.6 41.8324 129.99 41.8324C128.116 41.8324 127.35 41.3749 127.121 40.1429H128.82L128.961 37.8285H126.734C125.537 37.8285 125.185 37.6877 123.417 36.6758C122.22 35.9982 121.041 35.0918 119.017 35.0918C118.302 35.0738 117.592 35.2098 116.934 35.4908C116.277 35.7717 115.687 36.1908 115.206 36.7198L115.946 38.1805C116.796 37.6005 117.803 37.2935 118.832 37.3006C120.215 37.382 121.555 37.8085 122.73 38.5413C123.205 38.7877 123.61 38.9901 123.971 39.1573C119.474 41.6564 116.931 41.8588 114.52 41.8588H100.44C98.8301 41.8588 98.3989 41.1812 97.6333 39.5709L94.5006 33.0327L92.7406 33.8334L95.7501 40.1869C95.6269 41.3836 94.4126 42.026 92.6174 42.026C90.8223 42.026 89.5023 41.6564 89.6079 39.3861L88.0591 39.4741C87.9183 41.9292 88.4111 44.2348 92.3886 44.2348C94.659 44.2348 96.1021 43.3108 96.6565 41.6388C96.9232 42.3866 97.4268 43.0268 98.0908 43.4621C98.7547 43.8973 99.5427 44.1038 100.335 44.05H114.414C117.873 44.05 120.574 43.346 125.185 40.1341H125.863C125.969 42.5452 126.743 44.05 129.867 44.05L129.911 44.0852Z" fill="#1D4ED8"/>
<path d="M123.601 43.962C123.378 43.9585 123.158 44.0218 122.97 44.1438C122.782 44.2658 122.635 44.441 122.548 44.647C122.46 44.853 122.435 45.0805 122.478 45.3004C122.52 45.5203 122.627 45.7226 122.784 45.8815C122.942 46.0405 123.143 46.1488 123.363 46.1927C123.583 46.2366 123.81 46.2141 124.017 46.128C124.224 46.042 124.4 45.8963 124.523 45.7095C124.647 45.5228 124.712 45.3034 124.71 45.0796C124.71 44.7847 124.594 44.5017 124.386 44.2924C124.178 44.0831 123.896 43.9643 123.601 43.962Z" fill="#1D4ED8"/>
<path d="M132.093 45.59C131.87 45.5883 131.651 45.6531 131.464 45.7762C131.278 45.8993 131.132 46.0751 131.046 46.2812C130.959 46.4874 130.936 46.7146 130.979 46.9339C131.023 47.1532 131.13 47.3547 131.288 47.5128C131.446 47.6708 131.648 47.7783 131.867 47.8215C132.086 47.8647 132.313 47.8416 132.52 47.7553C132.726 47.6689 132.902 47.5232 133.025 47.3366C133.148 47.1501 133.213 46.9311 133.211 46.7076C133.211 46.4112 133.093 46.1269 132.884 45.9173C132.674 45.7077 132.39 45.59 132.093 45.59Z" fill="#1D4ED8"/>
</g>
<rect x="0.951686" y="0.432399" width="177.888" height="85.9185" rx="20.8416" stroke="#F3F4F6" stroke-width="0.587088"/>
<defs>
<clipPath id="clip0_1_288">
<rect width="88.253" height="37.1263" fill="white" transform="translate(45.8642 24.7961)"/>
</clipPath>
</defs>
</svg>
