<svg width="179" height="87" viewBox="0 0 179 87" fill="none" xmlns="http://www.w3.org/2000/svg">
<rect x="0.354671" y="0.432399" width="177.888" height="85.9185" rx="20.8416" fill="white"/>
<g clip-path="url(#clip0_1_290)">
<path d="M69.8616 39.1661C69.9635 38.508 70.0164 37.8433 70.02 37.1774C70.02 33.8952 68.7167 30.7473 66.3967 28.4256C64.0767 26.1039 60.9297 24.7984 57.6475 24.7961H45.2662V37.1774C45.2671 39.2448 45.7883 41.2787 46.7817 43.0918C47.7752 44.9049 49.2089 46.4388 50.9509 47.5523C50.8417 48.2126 50.7858 48.8806 50.7837 49.5499V61.7199C50.7836 61.7473 50.7892 61.7743 50.7999 61.7995C50.8106 61.8246 50.8263 61.8473 50.846 61.8662C50.8658 61.8852 50.8891 61.8999 50.9147 61.9095C50.9403 61.9192 50.9675 61.9235 50.9949 61.9224H63.1298C65.7995 61.9233 68.3979 61.0607 70.537 59.4634C72.6761 57.866 74.2412 55.6196 74.9985 53.0596C75.7559 50.4995 75.6648 47.7632 74.739 45.2592C73.8131 42.7551 72.1022 40.6177 69.8616 39.1661ZM48.0293 37.1774V27.5592H57.6475C60.1961 27.5639 62.639 28.579 64.4403 30.382C66.2416 32.185 67.2545 34.6287 67.2568 37.1774C67.2568 37.4061 67.2568 37.6437 67.2568 37.8725C64.284 36.8336 61.0272 36.9649 58.1475 38.2396C55.2679 39.5144 52.9812 41.8371 51.7516 44.7364C50.6021 43.8397 49.6718 42.693 49.0315 41.3833C48.3911 40.0736 48.0574 38.6352 48.0557 37.1774M66.6497 40.6005C66.1977 41.786 65.5154 42.8703 64.6422 43.7907C63.7689 44.7112 62.7221 45.4496 61.562 45.9634C60.4019 46.4772 59.1516 46.7561 57.8831 46.7841C56.6147 46.8122 55.3532 46.5887 54.1716 46.1267C54.6236 44.9412 55.3059 43.857 56.1791 42.9365C57.0523 42.016 58.0992 41.2776 59.2592 40.7638C60.4193 40.2501 61.6697 39.9711 62.9381 39.9431C64.2066 39.915 65.468 40.1385 66.6497 40.6005ZM63.1298 59.1592H53.5116V49.5499C53.5116 49.3123 53.5116 49.0835 53.5116 48.8547C56.4845 49.8936 59.7413 49.7624 62.6209 48.4876C65.5006 47.2128 67.7873 44.8901 69.0168 41.9908C70.5937 43.2218 71.7467 44.9145 72.3147 46.8326C72.8827 48.7507 72.8374 50.7983 72.185 52.6894C71.5327 54.5804 70.306 56.2205 68.6762 57.3805C67.0464 58.5404 65.095 59.1623 63.0946 59.1592" fill="#EF4444"/>
<path d="M89.9956 54.9353C89.7526 55.3323 89.3886 55.6407 88.9572 55.8153C89.27 55.8988 89.5672 56.0325 89.8372 56.2113C90.0599 56.3734 90.2558 56.5694 90.4179 56.7921C90.5658 57.0013 90.6787 57.2331 90.7523 57.4785C90.8224 57.7186 90.8579 57.9675 90.8579 58.2176C90.8734 58.6799 90.7672 59.1381 90.5499 59.5464C90.3509 59.8978 90.074 60.1988 89.7404 60.4264C89.3912 60.661 89.0042 60.8336 88.5964 60.9368C88.1642 61.0414 87.7211 61.0946 87.2764 61.0952H83.3781V51.257H86.766C87.3032 51.2496 87.839 51.3148 88.3588 51.4506C88.7592 51.5573 89.1355 51.7395 89.4676 51.9874C89.745 52.1917 89.9685 52.4605 90.1187 52.7706C90.2601 53.0736 90.3322 53.4042 90.3299 53.7385C90.3315 54.1607 90.2157 54.5751 89.9956 54.9353ZM88.0948 53.1754C87.6598 52.9269 87.1596 52.8164 86.6604 52.8586H85.1293V55.1993H86.6604C87.1505 55.2363 87.6412 55.1357 88.0772 54.9089C88.2212 54.8136 88.3376 54.6822 88.4148 54.5278C88.4921 54.3733 88.5274 54.2013 88.5172 54.029C88.5194 53.8659 88.4821 53.7047 88.4085 53.5592C88.335 53.4136 88.2274 53.288 88.0948 53.193M88.8956 57.5312C88.7997 57.3592 88.656 57.2187 88.482 57.1265C88.279 57.0201 88.0583 56.9515 87.8308 56.9241C87.5398 56.8786 87.2454 56.858 86.9508 56.8625H85.1293V59.5024H87.03C87.5561 59.5412 88.0828 59.4347 88.5524 59.1944C88.7166 59.0886 88.8492 58.9403 88.9359 58.7652C89.0227 58.5901 89.0604 58.3948 89.0452 58.2C89.053 57.9784 89.0078 57.7582 88.9132 57.5576" fill="#EF4444"/>
<path d="M98.2673 59.5464C98.5309 59.6189 98.8034 59.6544 99.0768 59.652C99.2383 59.6642 99.4005 59.6414 99.5524 59.5852C99.7042 59.529 99.8422 59.4407 99.9568 59.3264C100.201 59.0145 100.314 58.6203 100.274 58.2264V51.2922H102.034V58.332C102.043 58.7964 101.981 59.2595 101.849 59.7048C101.746 60.05 101.569 60.3685 101.33 60.6376C101.105 60.8784 100.823 61.0598 100.511 61.1656C100.162 61.2822 99.7965 61.3387 99.4288 61.3328C98.9396 61.3409 98.4514 61.2847 97.9769 61.1656C97.6195 61.078 97.2738 60.948 96.9473 60.7784L97.5897 59.2736C97.8092 59.3996 98.0425 59.5 98.2849 59.5728" fill="#EF4444"/>
<path d="M112.549 51.257C113.32 51.2499 114.088 51.3567 114.828 51.5738C115.487 51.7455 116.106 52.0445 116.65 52.4538C117.163 52.8638 117.573 53.3881 117.847 53.9849C118.147 54.6507 118.295 55.3754 118.278 56.1057C118.288 56.8336 118.147 57.5556 117.864 58.2264C117.597 58.8297 117.197 59.3651 116.694 59.7928C116.178 60.2294 115.579 60.5585 114.934 60.7608C114.193 60.9888 113.421 61.1016 112.646 61.0952H110.006V51.257H112.549ZM114.142 59.3176C114.588 59.2159 115.008 59.021 115.374 58.7456C115.719 58.4678 115.988 58.1077 116.157 57.6985C116.354 57.2034 116.447 56.6733 116.43 56.1409C116.447 55.6333 116.351 55.1283 116.148 54.6625C115.974 54.2661 115.705 53.9185 115.365 53.6506C115.005 53.3743 114.592 53.1764 114.151 53.0698C113.635 52.9494 113.106 52.8903 112.576 52.8938H111.696V59.4936H112.514C113.062 59.5023 113.609 59.4432 114.142 59.3176Z" fill="#EF4444"/>
<path d="M131.627 61.1304L130.747 58.7984H126.664L125.837 61.1304H123.998L127.65 51.257H129.779L133.431 61.1304H131.627ZM130.202 57.1617L128.741 53.061L127.28 57.1617H130.202Z" fill="#EF4444"/>
<path d="M83.4396 44.0852H85.2084V30.9471L83.4396 30.5775V44.0852Z" fill="#EF4444"/>
<path d="M129.313 44.0852C131.83 44.0852 133.519 42.5628 133.519 39.6853C133.479 38.2563 133.263 36.8377 132.877 35.4614L131.205 35.8926C131.529 37.205 131.724 38.5461 131.786 39.8965C131.786 41.2341 131.002 41.8324 129.392 41.8324C127.518 41.8324 126.752 41.3749 126.523 40.1429H128.222L128.363 37.8285H126.136C124.939 37.8285 124.587 37.6877 122.819 36.6758C121.622 35.9982 120.443 35.0918 118.419 35.0918C117.704 35.0738 116.994 35.2098 116.336 35.4908C115.679 35.7717 115.09 36.1908 114.608 36.7198L115.348 38.1805C116.198 37.6005 117.205 37.2935 118.234 37.3006C119.617 37.382 120.957 37.8085 122.132 38.5413C122.607 38.7877 123.012 38.9901 123.373 39.1573C118.876 41.6564 116.333 41.8588 113.922 41.8588H99.8424C98.2321 41.8588 97.8009 41.1812 97.0353 39.5709L93.9026 33.0327L92.1426 33.8334L95.1521 40.1869C95.0289 41.3836 93.8146 42.026 92.0194 42.026C90.2243 42.026 88.9043 41.6564 89.0099 39.3861L87.4611 39.4741C87.3203 41.9292 87.8131 44.2348 91.7906 44.2348C94.061 44.2348 95.5041 43.3108 96.0585 41.6388C96.3252 42.3866 96.8288 43.0268 97.4928 43.4621C98.1568 43.8973 98.9447 44.1038 99.7368 44.05H113.816C117.275 44.05 119.976 43.346 124.587 40.1341H125.265C125.371 42.5452 126.145 44.05 129.269 44.05L129.313 44.0852Z" fill="#EF4444"/>
<path d="M123.003 43.962C122.78 43.9585 122.56 44.0218 122.372 44.1438C122.184 44.2658 122.037 44.441 121.95 44.647C121.862 44.853 121.837 45.0805 121.88 45.3004C121.922 45.5203 122.029 45.7226 122.186 45.8815C122.344 46.0405 122.545 46.1488 122.765 46.1927C122.985 46.2366 123.212 46.2141 123.419 46.128C123.626 46.042 123.802 45.8963 123.925 45.7095C124.049 45.5228 124.114 45.3034 124.112 45.0796C124.112 44.7847 123.996 44.5017 123.788 44.2924C123.58 44.0831 123.298 43.9643 123.003 43.962Z" fill="#EF4444"/>
<path d="M131.495 45.59C131.272 45.5883 131.053 45.6531 130.866 45.7762C130.68 45.8993 130.534 46.0751 130.448 46.2812C130.361 46.4874 130.338 46.7146 130.381 46.9339C130.425 47.1532 130.532 47.3547 130.69 47.5128C130.848 47.6708 131.05 47.7783 131.269 47.8215C131.488 47.8647 131.715 47.8416 131.922 47.7553C132.128 47.6689 132.304 47.5232 132.427 47.3366C132.55 47.1501 132.615 46.9311 132.613 46.7076C132.613 46.4112 132.495 46.1269 132.286 45.9173C132.076 45.7077 131.792 45.59 131.495 45.59Z" fill="#EF4444"/>
</g>
<rect x="0.354671" y="0.432399" width="177.888" height="85.9185" rx="20.8416" stroke="#F3F4F6" stroke-width="0.587088"/>
<defs>
<clipPath id="clip0_1_290">
<rect width="88.253" height="37.1263" fill="white" transform="translate(45.2662 24.7961)"/>
</clipPath>
</defs>
</svg>
