<svg width="179" height="87" viewBox="0 0 179 87" fill="none" xmlns="http://www.w3.org/2000/svg">
<rect x="0.548244" y="0.432582" width="177.888" height="85.9185" rx="20.8416" fill="white"/>
<g clip-path="url(#clip0_1_286)">
<path d="M70.0561 39.1663C70.158 38.5082 70.211 37.8435 70.2145 37.1775C70.2145 33.8953 68.9113 30.7475 66.5912 28.4258C64.2712 26.1041 61.1242 24.7986 57.842 24.7963H45.4608V37.1775C45.4617 39.245 45.9828 41.2789 46.9763 43.092C47.9697 44.9051 49.4034 46.439 51.1454 47.5525C51.0362 48.2128 50.9803 48.8808 50.9782 49.55V61.7201C50.9782 61.7475 50.9837 61.7745 50.9944 61.7997C51.0051 61.8248 51.0208 61.8475 51.0406 61.8664C51.0603 61.8853 51.0837 61.9001 51.1093 61.9097C51.1348 61.9194 51.1621 61.9237 51.1894 61.9225H63.3243C65.994 61.9235 68.5924 61.0609 70.7316 59.4636C72.8707 57.8662 74.4358 55.6198 75.1931 53.0598C75.9504 50.4997 75.8594 47.7634 74.9335 45.2593C74.0077 42.7553 72.2967 40.6179 70.0561 39.1663ZM48.2239 37.1775V27.5594H57.842C60.3907 27.564 62.8335 28.5792 64.6348 30.3822C66.4362 32.1852 67.4491 34.6289 67.4514 37.1775C67.4514 37.4063 67.4514 37.6439 67.4514 37.8727C64.4785 36.8338 61.2217 36.965 58.3421 38.2398C55.4624 39.5146 53.1757 41.8373 51.9462 44.7366C50.7966 43.8399 49.8664 42.6932 49.226 41.3835C48.5856 40.0738 48.252 38.6354 48.2503 37.1775M66.8442 40.6007C66.3922 41.7862 65.7099 42.8704 64.8367 43.7909C63.9635 44.7114 62.9166 45.4498 61.7566 45.9636C60.5965 46.4773 59.3461 46.7563 58.0777 46.7843C56.8092 46.8124 55.5478 46.5889 54.3661 46.1269C54.8181 44.9414 55.5004 43.8571 56.3736 42.9367C57.2469 42.0162 58.2937 41.2778 59.4538 40.764C60.6139 40.2502 61.8642 39.9713 63.1327 39.9433C64.4011 39.9152 65.6626 40.1386 66.8442 40.6007ZM63.3243 59.1594H53.7061V49.55C53.7061 49.3125 53.7061 49.0837 53.7061 48.8549C56.679 49.8938 59.9358 49.7625 62.8155 48.4878C65.6951 47.213 67.9818 44.8903 69.2114 41.991C70.7882 43.2219 71.9412 44.9147 72.5092 46.8328C73.0772 48.7509 73.0319 50.7985 72.3796 52.6895C71.7273 54.5806 70.5005 56.2207 68.8707 57.3806C67.2409 58.5406 65.2895 59.1625 63.2891 59.1594" fill="#10B981"/>
<path d="M90.1901 54.9355C89.9471 55.3324 89.5831 55.6409 89.1517 55.8155C89.4645 55.899 89.7617 56.0327 90.0317 56.2115C90.2544 56.3736 90.4504 56.5695 90.6125 56.7923C90.7603 57.0014 90.8733 57.2333 90.9469 57.4786C91.0169 57.7188 91.0525 57.9677 91.0525 58.2178C91.068 58.6801 90.9618 59.1383 90.7445 59.5466C90.5455 59.898 90.2685 60.199 89.9349 60.4266C89.5857 60.6612 89.1987 60.8338 88.7909 60.9369C88.3587 61.0416 87.9156 61.0948 87.4709 61.0954H83.5726V51.2572H86.9606C87.4978 51.2498 88.0335 51.3149 88.5533 51.4508C88.9537 51.5575 89.33 51.7397 89.6621 51.9876C89.9396 52.1919 90.1631 52.4607 90.3133 52.7707C90.4546 53.0737 90.5268 53.4044 90.5245 53.7387C90.526 54.1609 90.4102 54.5753 90.1901 54.9355ZM88.2893 53.1756C87.8543 52.9271 87.3541 52.8166 86.855 52.8588H85.3238V55.1995H86.855C87.345 55.2365 87.8357 55.1359 88.2717 54.9091C88.4157 54.8138 88.5322 54.6824 88.6094 54.5279C88.6866 54.3735 88.7219 54.2015 88.7117 54.0291C88.7139 53.8661 88.6766 53.7049 88.6031 53.5593C88.5295 53.4138 88.4219 53.2881 88.2893 53.1931M89.0901 57.5314C88.9942 57.3594 88.8505 57.2189 88.6765 57.1266C88.4735 57.0203 88.2529 56.9517 88.0253 56.9242C87.7343 56.8788 87.4399 56.8582 87.1454 56.8627H85.3238V59.5026H87.2246C87.7506 59.5414 88.2773 59.4349 88.7469 59.1946C88.9112 59.0888 89.0437 58.9405 89.1305 58.7654C89.2172 58.5903 89.255 58.395 89.2397 58.2002C89.2476 57.9786 89.2023 57.7584 89.1077 57.5578" fill="#10B981"/>
<path d="M98.4618 59.5466C98.7255 59.6191 98.9979 59.6546 99.2714 59.6522C99.4329 59.6643 99.595 59.6416 99.7469 59.5854C99.8988 59.5292 100.037 59.4409 100.151 59.3266C100.395 59.0147 100.509 58.6204 100.468 58.2266V51.2924H102.228V58.3322C102.238 58.7966 102.175 59.2596 102.043 59.705C101.941 60.0502 101.764 60.3687 101.524 60.6377C101.299 60.8786 101.018 61.06 100.706 61.1657C100.357 61.2824 99.991 61.3389 99.6234 61.3329C99.1342 61.3411 98.646 61.2849 98.1714 61.1657C97.814 61.0781 97.4684 60.9482 97.1418 60.7785L97.7842 59.2738C98.0037 59.3998 98.237 59.5002 98.4794 59.573" fill="#10B981"/>
<path d="M112.744 51.2572C113.515 51.2501 114.283 51.3569 115.023 51.574C115.682 51.7457 116.301 52.0446 116.845 52.454C117.357 52.864 117.767 53.3883 118.041 53.9851C118.342 54.6509 118.489 55.3756 118.472 56.1059C118.482 56.8337 118.341 57.5558 118.059 58.2266C117.791 58.8299 117.391 59.3653 116.889 59.793C116.372 60.2296 115.774 60.5587 115.129 60.761C114.388 60.989 113.616 61.1018 112.841 61.0954H110.201V51.2572H112.744ZM114.337 59.3178C114.783 59.2161 115.203 59.0212 115.569 58.7458C115.913 58.468 116.183 58.1079 116.352 57.6986C116.548 57.2036 116.641 56.6735 116.625 56.1411C116.642 55.6335 116.546 55.1284 116.343 54.6627C116.169 54.2663 115.9 53.9187 115.56 53.6507C115.2 53.3744 114.786 53.1766 114.345 53.07C113.829 52.9496 113.3 52.8905 112.77 52.894H111.89V59.4938H112.709C113.256 59.5025 113.803 59.4434 114.337 59.3178Z" fill="#10B981"/>
<path d="M131.822 61.1306L130.942 58.7986H126.859L126.032 61.1306H124.192L127.844 51.2572H129.974L133.626 61.1306H131.822ZM130.396 57.1619L128.935 53.0612L127.475 57.1619H130.396Z" fill="#10B981"/>
<path d="M83.6342 44.0854H85.403V30.9473L83.6342 30.5777V44.0854Z" fill="#10B981"/>
<path d="M129.507 44.0854C132.024 44.0854 133.714 42.563 133.714 39.6855C133.674 38.2565 133.458 36.8378 133.071 35.4616L131.399 35.8928C131.724 37.2052 131.918 38.5462 131.98 39.8967C131.98 41.2342 131.197 41.8326 129.587 41.8326C127.712 41.8326 126.947 41.375 126.718 40.1431H128.416L128.557 37.8287H126.331C125.134 37.8287 124.782 37.6879 123.013 36.676C121.816 35.9984 120.637 35.092 118.613 35.092C117.899 35.074 117.188 35.21 116.531 35.4909C115.873 35.7718 115.284 36.191 114.803 36.7199L115.542 38.1807C116.392 37.6007 117.399 37.2937 118.429 37.3007C119.811 37.3821 121.151 37.8087 122.327 38.5415C122.802 38.7879 123.207 38.9903 123.568 39.1575C119.071 41.6566 116.528 41.859 114.117 41.859H100.037C98.4266 41.859 97.9954 41.1814 97.2299 39.5711L94.0971 33.0328L92.3372 33.8336L95.3467 40.1871C95.2235 41.3838 94.0091 42.0262 92.214 42.0262C90.4188 42.0262 89.0989 41.6566 89.2045 39.3863L87.6557 39.4743C87.5149 41.9294 88.0077 44.235 91.9852 44.235C94.2555 44.235 95.6987 43.311 96.2531 41.639C96.5197 42.3868 97.0234 43.027 97.6873 43.4623C98.3513 43.8975 99.1393 44.104 99.9314 44.0502H114.011C117.469 44.0502 120.171 43.3462 124.782 40.1343H125.46C125.565 42.5454 126.34 44.0502 129.463 44.0502L129.507 44.0854Z" fill="#10B981"/>
<path d="M123.198 43.9622C122.974 43.9587 122.754 44.022 122.567 44.144C122.379 44.266 122.232 44.4412 122.144 44.6472C122.056 44.8532 122.032 45.0807 122.074 45.3006C122.116 45.5204 122.223 45.7228 122.381 45.8817C122.539 46.0406 122.74 46.149 122.96 46.1929C123.179 46.2368 123.407 46.2143 123.613 46.1282C123.82 46.0422 123.996 45.8964 124.12 45.7097C124.243 45.5229 124.308 45.3036 124.307 45.0797C124.307 44.7849 124.19 44.5019 123.983 44.2926C123.775 44.0833 123.493 43.9645 123.198 43.9622Z" fill="#10B981"/>
<path d="M131.69 45.5902C131.466 45.5884 131.247 45.6532 131.061 45.7763C130.874 45.8994 130.728 46.0753 130.642 46.2814C130.556 46.4876 130.533 46.7148 130.576 46.9341C130.619 47.1534 130.727 47.3549 130.885 47.513C131.043 47.671 131.244 47.7785 131.463 47.8217C131.683 47.8648 131.91 47.8418 132.116 47.7555C132.322 47.6691 132.498 47.5234 132.621 47.3368C132.744 47.1502 132.809 46.9313 132.807 46.7077C132.807 46.4113 132.69 46.1271 132.48 45.9175C132.27 45.7079 131.986 45.5902 131.69 45.5902Z" fill="#10B981"/>
</g>
<rect x="0.548244" y="0.432582" width="177.888" height="85.9185" rx="20.8416" stroke="#F3F4F6" stroke-width="0.587088"/>
<defs>
<clipPath id="clip0_1_286">
<rect width="88.253" height="37.1263" fill="white" transform="translate(45.4608 24.7963)"/>
</clipPath>
</defs>
</svg>
