<svg width="179" height="87" viewBox="0 0 179 87" fill="none" xmlns="http://www.w3.org/2000/svg">
<rect x="0.742702" y="0.432399" width="177.888" height="85.9185" rx="20.8416" fill="white"/>
<g clip-path="url(#clip0_1_294)">
<path d="M70.2506 39.1661C70.3525 38.508 70.4054 37.8433 70.409 37.1774C70.409 33.8952 69.1057 30.7473 66.7857 28.4256C64.4657 26.1039 61.3187 24.7984 58.0365 24.7961H45.6552V37.1774C45.6561 39.2448 46.1773 41.2787 47.1707 43.0918C48.1642 44.9049 49.5979 46.4388 51.3399 47.5523C51.2307 48.2126 51.1748 48.8806 51.1727 49.5499V61.7199C51.1726 61.7473 51.1782 61.7743 51.1889 61.7995C51.1996 61.8246 51.2153 61.8473 51.235 61.8662C51.2548 61.8852 51.2781 61.8999 51.3037 61.9095C51.3293 61.9192 51.3566 61.9235 51.3839 61.9224H63.5188C66.1885 61.9233 68.7869 61.0607 70.926 59.4634C73.0652 57.866 74.6302 55.6196 75.3875 53.0596C76.1449 50.4995 76.0538 47.7632 75.128 45.2592C74.2021 42.7551 72.4912 40.6177 70.2506 39.1661ZM48.4183 37.1774V27.5592H58.0365C60.5852 27.5639 63.028 28.579 64.8293 30.382C66.6307 32.185 67.6435 34.6287 67.6459 37.1774C67.6459 37.4061 67.6459 37.6437 67.6459 37.8725C64.673 36.8336 61.4162 36.9649 58.5365 38.2396C55.6569 39.5144 53.3702 41.8371 52.1406 44.7364C50.9911 43.8397 50.0609 42.693 49.4205 41.3833C48.7801 40.0736 48.4464 38.6352 48.4447 37.1774M67.0387 40.6005C66.5867 41.786 65.9044 42.8703 65.0312 43.7907C64.1579 44.7112 63.1111 45.4496 61.951 45.9634C60.7909 46.4772 59.5406 46.7561 58.2721 46.7841C57.0037 46.8122 55.7422 46.5887 54.5606 46.1267C55.0126 44.9412 55.6949 43.857 56.5681 42.9365C57.4413 42.016 58.4882 41.2776 59.6483 40.7638C60.8083 40.2501 62.0587 39.9711 63.3271 39.9431C64.5956 39.915 65.857 40.1385 67.0387 40.6005ZM63.5188 59.1592H53.9006V49.5499C53.9006 49.3123 53.9006 49.0835 53.9006 48.8547C56.8735 49.8936 60.1303 49.7624 63.0099 48.4876C65.8896 47.2128 68.1763 44.8901 69.4058 41.9908C70.9827 43.2218 72.1357 44.9145 72.7037 46.8326C73.2717 48.7507 73.2264 50.7983 72.5741 52.6894C71.9217 54.5804 70.695 56.2205 69.0652 57.3805C67.4354 58.5404 65.484 59.1623 63.4836 59.1592" fill="#F54374"/>
<path d="M90.3846 54.9353C90.1416 55.3323 89.7776 55.6407 89.3462 55.8153C89.659 55.8988 89.9562 56.0325 90.2262 56.2113C90.4489 56.3734 90.6448 56.5694 90.8069 56.7921C90.9548 57.0013 91.0678 57.2331 91.1413 57.4785C91.2114 57.7186 91.2469 57.9675 91.2469 58.2176C91.2624 58.6799 91.1562 59.1381 90.9389 59.5464C90.7399 59.8978 90.463 60.1988 90.1294 60.4264C89.7802 60.661 89.3932 60.8336 88.9854 60.9368C88.5532 61.0414 88.1101 61.0946 87.6654 61.0952H83.7671V51.257H87.155C87.6922 51.2496 88.228 51.3148 88.7478 51.4506C89.1482 51.5573 89.5245 51.7395 89.8566 51.9874C90.134 52.1917 90.3575 52.4605 90.5078 52.7706C90.6491 53.0736 90.7213 53.4042 90.7189 53.7385C90.7205 54.1607 90.6047 54.5751 90.3846 54.9353ZM88.4838 53.1754C88.0488 52.9269 87.5486 52.8164 87.0494 52.8586H85.5183V55.1993H87.0494C87.5395 55.2363 88.0302 55.1357 88.4662 54.9089C88.6102 54.8136 88.7266 54.6822 88.8039 54.5278C88.8811 54.3733 88.9164 54.2013 88.9062 54.029C88.9084 53.8659 88.8711 53.7047 88.7975 53.5592C88.724 53.4136 88.6164 53.288 88.4838 53.193M89.2846 57.5312C89.1887 57.3592 89.045 57.2187 88.871 57.1265C88.668 57.0201 88.4473 56.9515 88.2198 56.9241C87.9288 56.8786 87.6344 56.858 87.3398 56.8625H85.5183V59.5024H87.419C87.9451 59.5412 88.4718 59.4347 88.9414 59.1944C89.1056 59.0886 89.2382 58.9403 89.3249 58.7652C89.4117 58.5901 89.4494 58.3948 89.4342 58.2C89.442 57.9784 89.3968 57.7582 89.3022 57.5576" fill="#F54374"/>
<path d="M98.6563 59.5464C98.9199 59.6189 99.1924 59.6544 99.4659 59.652C99.6273 59.6642 99.7895 59.6414 99.9414 59.5852C100.093 59.529 100.231 59.4407 100.346 59.3264C100.59 59.0145 100.703 58.6203 100.663 58.2264V51.2922H102.423V58.332C102.432 58.7964 102.37 59.2595 102.238 59.7048C102.135 60.05 101.958 60.3685 101.719 60.6376C101.494 60.8784 101.212 61.0598 100.9 61.1656C100.551 61.2822 100.185 61.3387 99.8178 61.3328C99.3286 61.3409 98.8404 61.2847 98.3659 61.1656C98.0085 61.078 97.6629 60.948 97.3363 60.7784L97.9787 59.2736C98.1982 59.3996 98.4315 59.5 98.6739 59.5728" fill="#F54374"/>
<path d="M112.938 51.257C113.709 51.2499 114.477 51.3567 115.217 51.5738C115.876 51.7455 116.495 52.0445 117.039 52.4538C117.552 52.8638 117.962 53.3881 118.236 53.9849C118.536 54.6507 118.684 55.3754 118.667 56.1057C118.677 56.8336 118.536 57.5556 118.253 58.2264C117.986 58.8297 117.586 59.3651 117.083 59.7928C116.567 60.2294 115.968 60.5585 115.323 60.7608C114.582 60.9888 113.81 61.1016 113.035 61.0952H110.395V51.257H112.938ZM114.531 59.3176C114.977 59.2159 115.397 59.021 115.763 58.7456C116.108 58.4678 116.377 58.1077 116.546 57.6985C116.743 57.2034 116.836 56.6733 116.819 56.1409C116.836 55.6333 116.74 55.1283 116.537 54.6625C116.363 54.2661 116.094 53.9185 115.754 53.6506C115.394 53.3743 114.981 53.1764 114.54 53.0698C114.024 52.9494 113.495 52.8903 112.965 52.8938H112.085V59.4936H112.903C113.451 59.5023 113.998 59.4432 114.531 59.3176Z" fill="#F54374"/>
<path d="M132.016 61.1304L131.136 58.7984H127.053L126.226 61.1304H124.387L128.039 51.257H130.168L133.82 61.1304H132.016ZM130.591 57.1617L129.13 53.061L127.669 57.1617H130.591Z" fill="#F54374"/>
<path d="M83.8286 44.0852H85.5974V30.9471L83.8286 30.5775V44.0852Z" fill="#F54374"/>
<path d="M129.702 44.0852C132.219 44.0852 133.908 42.5628 133.908 39.6853C133.868 38.2563 133.652 36.8377 133.266 35.4614L131.594 35.8926C131.918 37.205 132.113 38.5461 132.175 39.8965C132.175 41.2341 131.391 41.8324 129.781 41.8324C127.907 41.8324 127.141 41.3749 126.912 40.1429H128.611L128.752 37.8285H126.525C125.328 37.8285 124.976 37.6877 123.208 36.6758C122.011 35.9982 120.832 35.0918 118.808 35.0918C118.093 35.0738 117.383 35.2098 116.725 35.4908C116.068 35.7717 115.479 36.1908 114.997 36.7198L115.737 38.1805C116.587 37.6005 117.594 37.2935 118.623 37.3006C120.006 37.382 121.346 37.8085 122.521 38.5413C122.996 38.7877 123.401 38.9901 123.762 39.1573C119.265 41.6564 116.722 41.8588 114.311 41.8588H100.231C98.6211 41.8588 98.1899 41.1812 97.4243 39.5709L94.2916 33.0327L92.5316 33.8334L95.5412 40.1869C95.418 41.3836 94.2036 42.026 92.4084 42.026C90.6133 42.026 89.2933 41.6564 89.3989 39.3861L87.8501 39.4741C87.7093 41.9292 88.2021 44.2348 92.1796 44.2348C94.45 44.2348 95.8931 43.3108 96.4475 41.6388C96.7142 42.3866 97.2178 43.0268 97.8818 43.4621C98.5458 43.8973 99.3337 44.1038 100.126 44.05H114.205C117.664 44.05 120.365 43.346 124.976 40.1341H125.654C125.76 42.5452 126.534 44.05 129.658 44.05L129.702 44.0852Z" fill="#F54374"/>
<path d="M123.392 43.962C123.169 43.9585 122.949 44.0218 122.761 44.1438C122.573 44.2658 122.426 44.441 122.339 44.647C122.251 44.853 122.227 45.0805 122.269 45.3004C122.311 45.5203 122.418 45.7226 122.575 45.8815C122.733 46.0405 122.934 46.1488 123.154 46.1927C123.374 46.2366 123.601 46.2141 123.808 46.128C124.015 46.042 124.191 45.8963 124.314 45.7095C124.438 45.5228 124.503 45.3034 124.501 45.0796C124.501 44.7847 124.385 44.5017 124.177 44.2924C123.969 44.0831 123.687 43.9643 123.392 43.962Z" fill="#F54374"/>
<path d="M131.884 45.59C131.661 45.5883 131.442 45.6531 131.255 45.7762C131.069 45.8993 130.923 46.0751 130.837 46.2812C130.75 46.4874 130.727 46.7146 130.77 46.9339C130.814 47.1532 130.921 47.3547 131.079 47.5128C131.237 47.6708 131.439 47.7783 131.658 47.8215C131.877 47.8647 132.104 47.8416 132.311 47.7553C132.517 47.6689 132.693 47.5232 132.816 47.3366C132.939 47.1501 133.004 46.9311 133.002 46.7076C133.002 46.4112 132.884 46.1269 132.675 45.9173C132.465 45.7077 132.181 45.59 131.884 45.59Z" fill="#F54374"/>
</g>
<rect x="0.742702" y="0.432399" width="177.888" height="85.9185" rx="20.8416" stroke="#F3F4F6" stroke-width="0.587088"/>
<defs>
<clipPath id="clip0_1_294">
<rect width="88.253" height="37.1263" fill="white" transform="translate(45.6552 24.7961)"/>
</clipPath>
</defs>
</svg>
