<svg width="180" height="87" viewBox="0 0 180 87" fill="none" xmlns="http://www.w3.org/2000/svg">
<rect x="1.14572" y="0.432399" width="177.888" height="85.9185" rx="20.8416" fill="white"/>
<g clip-path="url(#clip0_1_292)">
<path d="M70.6526 39.1661C70.7545 38.508 70.8075 37.8433 70.811 37.1774C70.811 33.8952 69.5078 30.7473 67.1877 28.4256C64.8677 26.1039 61.7207 24.7984 58.4385 24.7961H46.0573V37.1774C46.0582 39.2448 46.5793 41.2787 47.5728 43.0918C48.5662 44.9049 49.9999 46.4388 51.7419 47.5523C51.6327 48.2126 51.5768 48.8806 51.5747 49.5499V61.7199C51.5747 61.7473 51.5802 61.7743 51.5909 61.7995C51.6016 61.8246 51.6173 61.8473 51.6371 61.8662C51.6568 61.8852 51.6802 61.8999 51.7057 61.9095C51.7313 61.9192 51.7586 61.9235 51.7859 61.9224H63.9208C66.5905 61.9233 69.1889 61.0607 71.3281 59.4634C73.4672 57.866 75.0323 55.6196 75.7896 53.0596C76.5469 50.4995 76.4559 47.7632 75.53 45.2592C74.6042 42.7551 72.8932 40.6177 70.6526 39.1661ZM48.8204 37.1774V27.5592H58.4385C60.9872 27.5639 63.43 28.579 65.2313 30.382C67.0327 32.185 68.0456 34.6287 68.0479 37.1774C68.0479 37.4061 68.0479 37.6437 68.0479 37.8725C65.075 36.8336 61.8182 36.9649 58.9386 38.2396C56.0589 39.5144 53.7722 41.8371 52.5427 44.7364C51.3931 43.8397 50.4629 42.693 49.8225 41.3833C49.1821 40.0736 48.8485 38.6352 48.8468 37.1774M67.4407 40.6005C66.9887 41.786 66.3064 42.8703 65.4332 43.7907C64.56 44.7112 63.5131 45.4496 62.353 45.9634C61.193 46.4772 59.9426 46.7561 58.6742 46.7841C57.4057 46.8122 56.1443 46.5887 54.9626 46.1267C55.4146 44.9412 56.0969 43.857 56.9701 42.9365C57.8434 42.016 58.8902 41.2776 60.0503 40.7638C61.2104 40.2501 62.4607 39.9711 63.7292 39.9431C64.9976 39.915 66.2591 40.1385 67.4407 40.6005ZM63.9208 59.1592H54.3026V49.5499C54.3026 49.3123 54.3026 49.0835 54.3026 48.8547C57.2755 49.8936 60.5323 49.7624 63.412 48.4876C66.2916 47.2128 68.5783 44.8901 69.8079 41.9908C71.3847 43.2218 72.5377 44.9145 73.1057 46.8326C73.6737 48.7507 73.6284 50.7983 72.9761 52.6894C72.3238 54.5804 71.097 56.2205 69.4672 57.3805C67.8374 58.5404 65.886 59.1623 63.8856 59.1592" fill="#5B21B6"/>
<path d="M90.7866 54.9353C90.5436 55.3323 90.1796 55.6407 89.7482 55.8153C90.061 55.8988 90.3582 56.0325 90.6282 56.2113C90.8509 56.3734 91.0469 56.5694 91.209 56.7921C91.3568 57.0013 91.4698 57.2331 91.5434 57.4785C91.6134 57.7186 91.649 57.9675 91.649 58.2176C91.6645 58.6799 91.5583 59.1381 91.341 59.5464C91.142 59.8978 90.865 60.1988 90.5314 60.4264C90.1822 60.661 89.7952 60.8336 89.3874 60.9368C88.9552 61.0414 88.5121 61.0946 88.0674 61.0952H84.1691V51.257H87.5571C88.0943 51.2496 88.63 51.3148 89.1498 51.4506C89.5502 51.5573 89.9265 51.7395 90.2586 51.9874C90.536 52.1917 90.7596 52.4605 90.9098 52.7706C91.0511 53.0736 91.1233 53.4042 91.121 53.7385C91.1225 54.1607 91.0067 54.5751 90.7866 54.9353ZM88.8858 53.1754C88.4508 52.9269 87.9506 52.8164 87.4515 52.8586H85.9203V55.1993H87.4515C87.9415 55.2363 88.4322 55.1357 88.8682 54.9089C89.0122 54.8136 89.1287 54.6822 89.2059 54.5278C89.2831 54.3733 89.3184 54.2013 89.3082 54.029C89.3104 53.8659 89.2731 53.7047 89.1996 53.5592C89.126 53.4136 89.0184 53.288 88.8858 53.193M89.6866 57.5312C89.5907 57.3592 89.447 57.2187 89.273 57.1265C89.07 57.0201 88.8494 56.9515 88.6218 56.9241C88.3308 56.8786 88.0364 56.858 87.7419 56.8625H85.9203V59.5024H87.8211C88.3471 59.5412 88.8738 59.4347 89.3434 59.1944C89.5077 59.0886 89.6402 58.9403 89.727 58.7652C89.8137 58.5901 89.8515 58.3948 89.8362 58.2C89.8441 57.9784 89.7988 57.7582 89.7042 57.5576" fill="#5B21B6"/>
<path d="M99.0583 59.5464C99.322 59.6189 99.5944 59.6544 99.8679 59.652C100.029 59.6642 100.192 59.6414 100.343 59.5852C100.495 59.529 100.633 59.4407 100.748 59.3264C100.992 59.0145 101.105 58.6203 101.065 58.2264V51.2922H102.825V58.332C102.834 58.7964 102.772 59.2595 102.64 59.7048C102.537 60.05 102.36 60.3685 102.121 60.6376C101.896 60.8784 101.614 61.0598 101.302 61.1656C100.954 61.2822 100.588 61.3387 100.22 61.3328C99.7307 61.3409 99.2425 61.2847 98.7679 61.1656C98.4105 61.078 98.0649 60.948 97.7383 60.7784L98.3807 59.2736C98.6003 59.3996 98.8335 59.5 99.0759 59.5728" fill="#5B21B6"/>
<path d="M113.34 51.257C114.111 51.2499 114.879 51.3567 115.619 51.5738C116.278 51.7455 116.897 52.0445 117.441 52.4538C117.954 52.8638 118.364 53.3881 118.638 53.9849C118.938 54.6507 119.086 55.3754 119.069 56.1057C119.079 56.8336 118.938 57.5556 118.655 58.2264C118.388 58.8297 117.988 59.3651 117.485 59.7928C116.969 60.2294 116.37 60.5585 115.725 60.7608C114.984 60.9888 114.212 61.1016 113.437 61.0952H110.797V51.257H113.34ZM114.933 59.3176C115.379 59.2159 115.799 59.021 116.165 58.7456C116.51 58.4678 116.779 58.1077 116.948 57.6985C117.145 57.2034 117.238 56.6733 117.221 56.1409C117.238 55.6333 117.142 55.1283 116.939 54.6625C116.765 54.2661 116.496 53.9185 116.156 53.6506C115.796 53.3743 115.383 53.1764 114.942 53.0698C114.426 52.9494 113.897 52.8903 113.367 52.8938H112.487V59.4936H113.305C113.853 59.5023 114.4 59.4432 114.933 59.3176Z" fill="#5B21B6"/>
<path d="M132.418 61.1304L131.538 58.7984H127.455L126.628 61.1304H124.789L128.441 51.257H130.57L134.222 61.1304H132.418ZM130.993 57.1617L129.532 53.061L128.071 57.1617H130.993Z" fill="#5B21B6"/>
<path d="M84.2307 44.0852H85.9995V30.9471L84.2307 30.5775V44.0852Z" fill="#5B21B6"/>
<path d="M130.104 44.0852C132.621 44.0852 134.31 42.5628 134.31 39.6853C134.27 38.2563 134.055 36.8377 133.668 35.4614L131.996 35.8926C132.32 37.205 132.515 38.5461 132.577 39.8965C132.577 41.2341 131.793 41.8324 130.183 41.8324C128.309 41.8324 127.543 41.3749 127.314 40.1429H129.013L129.154 37.8285H126.927C125.73 37.8285 125.378 37.6877 123.61 36.6758C122.413 35.9982 121.234 35.0918 119.21 35.0918C118.495 35.0738 117.785 35.2098 117.127 35.4908C116.47 35.7717 115.881 36.1908 115.399 36.7198L116.139 38.1805C116.989 37.6005 117.996 37.2935 119.025 37.3006C120.408 37.382 121.748 37.8085 122.923 38.5413C123.398 38.7877 123.803 38.9901 124.164 39.1573C119.667 41.6564 117.124 41.8588 114.713 41.8588H100.633C99.0231 41.8588 98.5919 41.1812 97.8263 39.5709L94.6936 33.0327L92.9337 33.8334L95.9432 40.1869C95.82 41.3836 94.6056 42.026 92.8105 42.026C91.0153 42.026 89.6953 41.6564 89.8009 39.3861L88.2522 39.4741C88.1114 41.9292 88.6042 44.2348 92.5817 44.2348C94.852 44.2348 96.2952 43.3108 96.8496 41.6388C97.1162 42.3866 97.6198 43.0268 98.2838 43.4621C98.9478 43.8973 99.7358 44.1038 100.528 44.05H114.608C118.066 44.05 120.767 43.346 125.378 40.1341H126.056C126.162 42.5452 126.936 44.05 130.06 44.05L130.104 44.0852Z" fill="#5B21B6"/>
<path d="M123.795 43.962C123.571 43.9585 123.351 44.0218 123.163 44.1438C122.975 44.2658 122.828 44.441 122.741 44.647C122.653 44.853 122.629 45.0805 122.671 45.3004C122.713 45.5203 122.82 45.7226 122.977 45.8815C123.135 46.0405 123.337 46.1488 123.556 46.1927C123.776 46.2366 124.003 46.2141 124.21 46.128C124.417 46.042 124.593 45.8963 124.716 45.7095C124.84 45.5228 124.905 45.3034 124.903 45.0796C124.903 44.7847 124.787 44.5017 124.579 44.2924C124.371 44.0831 124.089 43.9643 123.795 43.962Z" fill="#5B21B6"/>
<path d="M132.286 45.59C132.063 45.5883 131.844 45.6531 131.657 45.7762C131.471 45.8993 131.325 46.0751 131.239 46.2812C131.152 46.4874 131.129 46.7146 131.172 46.9339C131.216 47.1532 131.323 47.3547 131.481 47.5128C131.639 47.6708 131.841 47.7783 132.06 47.8215C132.279 47.8647 132.506 47.8416 132.713 47.7553C132.919 47.6689 133.095 47.5232 133.218 47.3366C133.341 47.1501 133.406 46.9311 133.404 46.7076C133.404 46.4112 133.286 46.1269 133.077 45.9173C132.867 45.7077 132.583 45.59 132.286 45.59Z" fill="#5B21B6"/>
</g>
<rect x="1.14572" y="0.432399" width="177.888" height="85.9185" rx="20.8416" stroke="#F3F4F6" stroke-width="0.587088"/>
<defs>
<clipPath id="clip0_1_292">
<rect width="88.253" height="37.1263" fill="white" transform="translate(46.0573 24.7961)"/>
</clipPath>
</defs>
</svg>
