<svg width="18" height="18" viewBox="0 0 18 18" fill="none" xmlns="http://www.w3.org/2000/svg">
<path d="M16.9803 12.9658C16.6707 12.119 14.7949 12.0006 13.9207 10.061C13.8661 9.91534 13.8752 9.81517 14.0209 9.72411C14.6947 9.27793 15.1682 9.03207 15.4414 8.51303C15.6417 8.13969 15.669 7.70261 15.5142 7.30196C15.3048 6.7465 14.7767 6.39137 14.1301 6.39137C13.9025 6.39137 13.7204 6.4369 13.6293 6.45511C13.6384 6.07267 13.6293 5.67201 13.5929 5.27135C13.4745 3.87816 12.9828 3.14058 12.4729 2.55781C12.1724 2.22089 10.9795 0.973389 8.72127 0.973389C6.46301 0.973389 5.27015 2.22089 4.96965 2.55781C4.45973 3.14058 3.96801 3.87816 3.84963 5.27135C3.82232 5.67201 3.81321 6.07267 3.81321 6.45511C3.71305 6.42779 3.54004 6.39137 3.31239 6.39137C2.67498 6.39137 2.13773 6.73739 1.9283 7.30196C1.7735 7.69351 1.80082 8.13969 2.00115 8.51303C2.28343 9.04117 2.74783 9.27793 3.42166 9.72411C3.56735 9.82428 3.57646 9.91534 3.52182 10.061C2.63856 12.0006 0.771856 12.119 0.462257 12.9658C0.325669 13.33 0.416728 13.7398 0.753644 14.0858C1.27268 14.6231 2.2379 14.787 2.42912 14.9144C2.58392 15.0419 2.56571 15.4244 3.00279 15.734C3.34881 15.9707 3.73126 15.9889 4.14102 15.998C5.33389 16.0436 5.59796 16.2439 6.05325 16.5262C6.62692 16.8813 7.41002 17.3639 8.72127 17.3639C10.0325 17.3639 10.8156 16.8813 11.3893 16.5262C11.8446 16.2439 12.1086 16.0436 13.3015 15.998C13.7113 15.9798 14.0937 15.9707 14.4397 15.734C14.8859 15.4244 14.8677 15.0419 15.0134 14.9144C15.2046 14.787 16.1699 14.6231 16.6889 14.0858C17.0258 13.7398 17.1169 13.33 16.9803 12.9658ZM16.0424 13.4484C15.7055 13.8035 14.895 13.9037 14.4671 14.1951C14.03 14.5775 14.1028 14.8689 13.9298 14.9873C13.8114 15.0692 13.602 15.0784 13.2742 15.0966C11.9994 15.1421 11.535 15.3788 10.9795 15.7249C9.67738 16.5262 8.94891 16.4533 8.72127 16.4533C8.49362 16.4533 7.76515 16.5262 6.47212 15.7158C5.91666 15.3697 5.46137 15.1421 4.17745 15.0875C3.84963 15.0784 3.6402 15.0601 3.52182 14.9782C3.34881 14.8598 3.41255 14.5684 2.98458 14.186C2.5475 13.8946 1.74618 13.7944 1.40927 13.4393C1.35463 13.3847 1.3091 13.3118 1.3 13.3027C1.36374 13.2117 1.67334 13.0295 1.90098 12.9021C2.61124 12.4832 3.70394 11.864 4.36867 10.3979C4.60542 9.76054 4.39599 9.25061 3.93159 8.95012C2.88441 8.28539 2.90263 8.25807 2.80246 8.07595C2.76649 8.00614 2.74548 7.92959 2.74078 7.85119C2.73607 7.77279 2.74778 7.69428 2.77514 7.62066C2.88441 7.32927 3.18491 7.30196 3.30328 7.30196C3.47629 7.30196 3.46719 7.31106 4.7329 7.63887C4.71469 6.36405 4.69648 5.95429 4.75111 5.3533C4.85128 4.16044 5.27015 3.59587 5.64349 3.1679C5.89845 2.89472 6.89099 1.86576 8.72127 1.88397C10.5515 1.86576 11.5441 2.89472 11.7899 3.1679C12.1633 3.59587 12.5821 4.16044 12.6823 5.3533C12.7369 5.95429 12.7187 6.36405 12.7005 7.63887C13.9753 7.31106 13.9571 7.30196 14.1301 7.30196C14.2576 7.30196 14.549 7.32927 14.6583 7.62066C14.722 7.77546 14.7129 7.93937 14.631 8.07595C14.5308 8.25807 14.549 8.27628 13.5109 8.95922C13.0465 9.25972 12.8371 9.76964 13.0739 10.4071C13.7386 11.8731 14.8313 12.4923 15.5415 12.9112C15.7692 13.0478 16.0788 13.2208 16.1425 13.3118C16.1425 13.3209 16.0879 13.3938 16.0424 13.4484Z" fill="#E2E8F0"/>
</svg>
