<svg width="21" height="17" viewBox="0 0 21 17" fill="none" xmlns="http://www.w3.org/2000/svg">
<path fill-rule="evenodd" clip-rule="evenodd" d="M13.3917 0.284964C13.8552 0.205743 14.3733 0.179337 14.8614 0.2622C15.7308 0.409049 16.5363 0.812767 17.1743 1.42137C17.5895 1.43048 17.9984 1.34853 18.3599 1.23197C18.7093 1.11803 19.0447 0.964994 19.3597 0.77577L19.3679 0.770306C19.499 0.68294 19.6563 0.643602 19.8131 0.658961C19.97 0.67432 20.1166 0.74343 20.2283 0.854577C20.34 0.965724 20.4098 1.11207 20.4259 1.26881C20.442 1.42555 20.4035 1.58304 20.3167 1.71458C20.1282 2.00142 19.8651 2.51317 19.571 3.08684L19.4298 3.36092C19.2614 3.68873 19.0883 4.02018 18.9272 4.30429C18.8261 4.48276 18.7177 4.66397 18.6085 4.82059V5.07009C18.6197 6.56221 18.3336 8.04162 17.7669 9.42198C17.2001 10.8023 16.3642 12.056 15.3078 13.1098C14.2513 14.1636 12.9956 14.9964 11.6138 15.5597C10.232 16.123 8.75193 16.4054 7.25984 16.3905C5.09761 16.3925 2.98087 15.7695 1.16439 14.5966C1.03455 14.5127 0.937055 14.3871 0.887852 14.2405C0.83865 14.0939 0.840651 13.935 0.893528 13.7897C0.946405 13.6443 1.04703 13.5213 1.17894 13.4406C1.31085 13.3599 1.46623 13.3264 1.61968 13.3455C2.87434 13.4955 4.14599 13.293 5.29207 12.7609C4.73291 12.5067 4.23281 12.1388 3.82363 11.6807C3.41445 11.2226 3.10515 10.6844 2.91544 10.1002C2.87929 9.98832 2.87262 9.86905 2.89607 9.75387C2.91952 9.6387 2.9723 9.53152 3.0493 9.44272L3.0584 9.43361C2.59618 9.02181 2.22573 8.51738 1.97112 7.9531C1.71651 7.38882 1.58343 6.7773 1.58052 6.15824V6.11089C1.58046 5.96096 1.62973 5.81518 1.72073 5.69604C1.81173 5.57689 1.93942 5.49101 2.08408 5.45163C1.77573 4.83638 1.61575 4.15747 1.61695 3.46928C1.61643 2.68906 1.82051 1.92235 2.20883 1.24563C2.264 1.14957 2.34171 1.06837 2.43525 1.00903C2.5288 0.949696 2.63538 0.914008 2.7458 0.905046C2.85621 0.896083 2.96715 0.914116 3.06905 0.957587C3.17094 1.00106 3.26073 1.06866 3.33067 1.15457C4.92345 3.11682 7.20537 4.39686 9.71023 4.73317C9.68848 3.91381 9.89518 3.10457 10.3072 2.39601C10.7192 1.68744 11.3203 1.10752 12.0431 0.721135C12.4092 0.52627 12.8936 0.370559 13.3926 0.284964H13.3917ZM3.12214 7.15806C3.29897 7.65571 3.60197 8.09893 4.00148 8.44434C4.401 8.78975 4.88336 9.02552 5.40134 9.12857C5.55057 9.1583 5.6856 9.23702 5.785 9.35223C5.8844 9.46745 5.94247 9.61256 5.95001 9.76455C5.95754 9.91653 5.91409 10.0667 5.82657 10.1911C5.73905 10.3156 5.61246 10.4073 5.4669 10.4516C5.21922 10.5272 4.96517 10.5791 4.70747 10.6092C4.98725 10.9701 5.3443 11.2637 5.75241 11.4686C6.16052 11.6734 6.60933 11.7842 7.06589 11.7929C7.20672 11.7956 7.34328 11.8417 7.45686 11.925C7.57045 12.0083 7.65551 12.1247 7.70038 12.2582C7.74525 12.3917 7.74774 12.5358 7.70751 12.6708C7.66728 12.8058 7.58629 12.925 7.47565 13.0122C6.52614 13.7593 5.42271 14.2865 4.2449 14.5557C5.22001 14.8678 6.23782 15.026 7.26166 15.0246H7.26986C8.58111 15.0384 9.88198 14.7908 11.0964 14.2962C12.3109 13.8016 13.4146 13.0699 14.3431 12.1439C15.2716 11.2178 16.0062 10.1161 16.504 8.90292C17.0019 7.68977 17.2529 6.38957 17.2426 5.07829V4.59112C17.2425 4.4253 17.3027 4.26508 17.412 4.14038C17.4757 4.06845 17.585 3.90272 17.7398 3.63046C17.8855 3.37367 18.0475 3.06407 18.216 2.73717L18.2461 2.67707C17.7704 2.78411 17.2806 2.81394 16.7955 2.7654C16.6314 2.74753 16.4794 2.67087 16.3675 2.54959C15.9096 2.05303 15.2998 1.72251 14.6338 1.60987C14.2979 1.56235 13.9564 1.57004 13.623 1.63263C13.298 1.68322 12.9825 1.78237 12.6869 1.92675C12.0911 2.24509 11.6178 2.75221 11.3413 3.36856C11.0647 3.98491 11.0006 4.67562 11.159 5.33234C11.1839 5.43561 11.1844 5.54326 11.1604 5.64675C11.1364 5.75024 11.0886 5.84671 11.0208 5.92848C10.953 6.01026 10.8671 6.07509 10.7698 6.11782C10.6725 6.16055 10.5666 6.18 10.4606 6.17463C7.66285 6.03312 5.01785 4.85587 3.04019 2.87194C3.00177 3.06903 2.98256 3.26939 2.98282 3.47019V3.47201C2.9818 3.97351 3.10481 4.46749 3.34089 4.90995C3.57697 5.3524 3.91881 5.72962 4.33595 6.00799C4.45845 6.09044 4.55093 6.21037 4.59952 6.3498C4.64812 6.48924 4.65021 6.64067 4.60549 6.78139C4.56077 6.92212 4.47165 7.04456 4.35147 7.13036C4.2313 7.21616 4.08656 7.26071 3.93894 7.25732C3.66413 7.2497 3.39065 7.21707 3.12214 7.15806Z" fill="#E2E8F0"/>
</svg>
