<svg width="19" height="19" viewBox="0 0 19 19" fill="none" xmlns="http://www.w3.org/2000/svg">
<path d="M16.0999 2.71187C15.2651 1.8686 14.2707 1.19999 13.1748 0.745051C12.0788 0.290108 10.9033 0.0579322 9.71668 0.062066C4.74489 0.062066 0.692781 4.11417 0.692781 9.08597C0.692781 10.6795 1.11165 12.2275 1.89475 13.5934L0.619934 18.2738L5.40051 17.0172C6.72086 17.7365 8.20511 18.119 9.71668 18.119C14.6885 18.119 18.7406 14.0669 18.7406 9.09507C18.7406 6.68202 17.8027 4.41466 16.0999 2.71187ZM9.71668 16.5892C8.36902 16.5892 7.04867 16.225 5.89222 15.542L5.61905 15.3781L2.77802 16.1248L3.53381 13.3566L3.35169 13.0743C2.60296 11.8787 2.20539 10.4967 2.20435 9.08597C2.20435 4.95191 5.57352 1.58274 9.70758 1.58274C11.7109 1.58274 13.5958 2.36585 15.0072 3.78636C15.706 4.48201 16.2599 5.30946 16.6366 6.22074C17.0133 7.13202 17.2054 8.10901 17.2017 9.09507C17.2199 13.2291 13.8507 16.5892 9.71668 16.5892ZM13.8325 10.98C13.6049 10.8707 12.494 10.3244 12.2936 10.2424C12.0842 10.1696 11.9385 10.1331 11.7837 10.3517C11.6289 10.5793 11.2009 11.0893 11.0735 11.2349C10.946 11.3897 10.8094 11.408 10.5817 11.2896C10.3541 11.1803 9.62562 10.9345 8.76967 10.1696C8.09584 9.56858 7.64965 8.831 7.51306 8.60336C7.38558 8.37571 7.49485 8.25733 7.61323 8.13896C7.71339 8.03879 7.84088 7.87489 7.95015 7.74741C8.05942 7.61992 8.10495 7.51976 8.17779 7.37406C8.25064 7.21927 8.21422 7.09178 8.15958 6.98251C8.10495 6.87324 7.64965 5.76233 7.46754 5.30704C7.28542 4.86996 7.0942 4.92459 6.95761 4.91549H6.52053C6.36573 4.91549 6.12897 4.97012 5.91954 5.19777C5.71921 5.42541 5.13644 5.97176 5.13644 7.08268C5.13644 8.19359 5.94686 9.26808 6.05613 9.41378C6.1654 9.56858 7.64965 11.845 9.9079 12.8194C10.4451 13.0561 10.864 13.1927 11.1918 13.2929C11.7291 13.4659 12.2208 13.4386 12.6123 13.3839C13.0494 13.3202 13.9509 12.8376 14.133 12.3094C14.3242 11.7813 14.3242 11.3351 14.2605 11.2349C14.1968 11.1348 14.0602 11.0893 13.8325 10.98Z" fill="#E2E8F0"/>
</svg>
